<?xml version="1.0" standalone="no"?>
<!DOCTYPE svg PUBLIC "-//W3C//DTD SVG 20010904//EN"
 "http://www.w3.org/TR/2001/REC-SVG-20010904/DTD/svg10.dtd">
<svg version="1.0" xmlns="http://www.w3.org/2000/svg"
 width="300.000000pt" height="195.000000pt" viewBox="0 0 300.000000 195.000000"
 preserveAspectRatio="xMidYMid meet">
<metadata>
Created by potrace 1.10, written by Peter Selinger 2001-2011
</metadata>
<g transform="translate(0.000000,195.000000) scale(0.100000,-0.100000)"
fill="#000000" stroke="none">
<path d="M1455 1499 c-77 -27 -189 -67 -250 -88 -60 -21 -127 -46 -149 -55
-21 -9 -45 -16 -53 -16 -8 0 -28 -9 -44 -21 l-29 -20 0 -348 c0 -262 3 -351
13 -364 6 -9 35 -26 62 -38 62 -26 204 -85 265 -109 25 -10 117 -47 204 -83
l159 -65 51 18 c56 20 217 86 431 178 77 32 149 62 161 66 11 3 31 17 43 30
23 24 23 25 23 367 l0 343 -26 21 c-14 11 -52 28 -84 37 -31 9 -102 33 -157
53 -55 21 -109 39 -120 42 -20 5 -32 9 -90 33 -77 31 -210 70 -238 69 -18 0
-95 -23 -172 -50z m360 -34 c88 -31 198 -70 245 -86 47 -16 121 -42 165 -58
l80 -29 0 -346 0 -347 -180 -75 c-347 -144 -473 -194 -491 -194 -15 0 -225 81
-299 116 -16 7 -106 45 -200 83 l-170 68 -3 349 -2 349 67 22 c138 45 470 162
533 187 36 14 72 24 80 22 8 -2 87 -30 175 -61z"/>
<path d="M1538 1471 c-43 -14 -78 -29 -78 -32 0 -4 10 -9 23 -12 24 -6 383
-139 432 -161 17 -7 55 -23 86 -35 l56 -22 99 36 c54 19 101 35 104 36 3 0
-65 24 -150 54 -259 89 -358 124 -410 145 -61 24 -65 24 -162 -9z m366 -95
c132 -47 241 -88 243 -90 8 -8 -55 -36 -80 -36 -13 0 -73 19 -133 42 -60 22
-165 62 -233 87 -68 25 -126 51 -128 58 -5 14 45 33 72 28 11 -2 128 -42 259
-89z"/>
<path d="M1350 1405 c-36 -14 -69 -26 -74 -28 -11 -4 37 -22 301 -117 105 -38
216 -80 246 -94 l55 -24 71 26 c40 14 68 28 64 32 -4 3 -62 26 -128 50 -66 23
-133 49 -150 56 -16 7 -88 35 -160 62 -71 27 -137 52 -145 55 -8 3 -44 -5 -80
-18z m168 -49 c74 -29 273 -104 365 -138 28 -11 34 -22 17 -33 -9 -6 -275 84
-355 119 -16 8 -60 23 -97 36 -66 21 -81 33 -55 43 23 10 37 7 125 -27z"/>
<path d="M1113 1322 c-57 -20 -99 -39 -95 -43 4 -3 68 -27 142 -54 74 -26 196
-70 270 -97 213 -78 194 -74 255 -54 30 9 77 27 106 40 l52 22 -79 28 c-147
52 -329 118 -359 131 -47 20 -175 65 -183 64 -4 0 -53 -17 -109 -37z m272 -50
c55 -21 155 -58 223 -82 67 -24 122 -49 122 -55 0 -13 -64 -35 -102 -35 -22 0
-84 21 -386 129 -63 23 -116 41 -118 41 -2 0 -4 4 -4 9 0 5 17 16 38 25 51 22
108 15 227 -32z"/>
<path d="M982 943 l3 -326 120 -50 c66 -27 170 -70 230 -95 61 -25 149 -62
198 -83 l87 -37 -2 340 -3 340 -40 15 c-22 9 -74 28 -115 44 -41 15 -147 54
-235 85 -88 31 -179 65 -203 75 l-42 18 2 -326z m179 223 c68 -24 156 -56 194
-71 39 -14 75 -27 80 -29 6 -1 26 -9 46 -18 20 -9 47 -19 60 -23 50 -15 49
-10 49 -316 0 -177 -4 -290 -10 -294 -5 -3 -36 5 -67 18 -32 13 -116 47 -188
76 -129 52 -250 103 -292 123 -28 14 -29 16 -25 321 2 205 5 257 16 257 7 0
69 -20 137 -44z"/>
<path d="M2260 1258 c-75 -34 -109 -47 -147 -59 l-43 -12 0 -128 c0 -72 -4
-130 -10 -134 -14 -9 -142 -56 -167 -62 -23 -5 -23 -5 -23 121 0 69 -4 126 -8
126 -5 0 -55 -18 -113 -39 l-104 -40 -3 -340 -2 -340 57 24 c32 13 153 62 268
110 116 47 236 96 267 108 l58 22 0 328 c0 180 -1 327 -2 326 -2 0 -14 -5 -28
-11z m-2 -331 l2 -277 -32 -20 c-18 -11 -37 -18 -43 -17 -5 2 -12 31 -15 65
-6 73 -28 104 -60 84 -11 -6 -26 -12 -34 -12 -7 0 -19 -7 -26 -15 -7 -8 -23
-15 -37 -15 -35 0 -80 -26 -88 -51 -5 -14 -12 -18 -23 -13 -28 12 -63 7 -91
-14 -24 -18 -26 -24 -26 -105 0 -48 -5 -90 -10 -95 -16 -13 -86 -34 -92 -28
-8 8 -15 522 -8 563 5 27 14 36 52 53 26 11 60 21 77 23 l31 2 3 -92 c3 -85 5
-94 28 -112 24 -19 28 -19 77 -4 82 23 134 49 146 71 6 12 11 68 11 125 0 85
3 107 16 118 24 20 96 48 119 46 19 -2 20 -10 23 -280z m-118 -258 c0 -60 -3
-80 -12 -77 -8 3 -14 28 -16 68 -3 67 1 90 18 90 6 0 10 -32 10 -81z m-50 -19
c0 -64 -3 -80 -15 -80 -12 0 -15 15 -15 73 0 41 3 77 7 80 17 18 23 0 23 -73z
m-67 -28 c2 -52 -1 -72 -10 -72 -9 0 -13 22 -13 76 0 99 21 96 23 -4z m-45
-22 c-2 -48 -7 -75 -15 -78 -10 -3 -13 17 -13 76 0 43 3 82 7 86 16 16 24 -16
21 -84z m-90 -33 c2 -64 0 -77 -13 -77 -12 0 -15 15 -15 81 0 60 3 80 13 77 8
-3 13 -31 15 -81z m-48 -17 c0 -64 -3 -80 -15 -80 -12 0 -15 16 -15 80 0 64 3
80 15 80 12 0 15 -16 15 -80z"/>
<path d="M1968 1152 l-68 -27 0 -116 0 -117 70 27 70 26 0 102 c0 56 3 108 6
117 8 21 2 20 -78 -12z m42 -96 c0 -66 -3 -77 -22 -90 -12 -9 -30 -16 -40 -16
-16 0 -18 10 -18 75 0 71 1 75 28 89 48 27 52 22 52 -58z"/>
<path d="M638 1200 c-109 -6 -139 -20 -119 -57 13 -25 51 -31 207 -33 105 -1
124 2 145 18 20 17 22 23 12 45 -11 23 -18 26 -80 29 -37 1 -112 1 -165 -2z
m232 -45 c0 -13 -23 -15 -167 -13 -122 2 -167 6 -171 16 -3 9 35 12 167 12
147 0 171 -2 171 -15z"/>
<path d="M435 988 c-15 -22 -14 -24 10 -45 25 -22 33 -23 218 -23 204 1 227 6
227 48 0 37 -30 42 -239 42 -196 0 -200 0 -216 -22z m435 -23 c0 -13 -28 -15
-212 -13 -158 2 -212 6 -216 16 -3 9 44 12 212 12 187 0 216 -2 216 -15z"/>
<path d="M372 812 c-31 -5 -46 -36 -26 -56 25 -25 47 -27 286 -24 203 3 228 5
246 21 28 25 18 45 -30 58 -35 9 -410 10 -476 1z m501 -37 c-5 -16 -515 -13
-521 3 -3 10 51 12 260 10 169 -2 262 -7 261 -13z"/>
</g>
</svg>
