<?xml version="1.0" encoding="UTF-8"?>
<svg version="1.1" xmlns="http://www.w3.org/2000/svg" width="1302" height="850">
<path d="M0 0 C429.66 0 859.32 0 1302 0 C1302 280.5 1302 561 1302 850 C872.34 850 442.68 850 0 850 C0 569.5 0 289 0 0 Z " fill="#4A3F5E" transform="translate(0,0)"/>
<path d="M0 0 C1.09570312 0.31839844 2.19140625 0.63679688 3.3203125 0.96484375 C4.24585938 1.28582031 5.17140625 1.60679687 6.125 1.9375 C7.05570313 2.25589844 7.98640625 2.57429688 8.9453125 2.90234375 C11.94545864 3.98040138 14.92846489 5.09753728 17.91162109 6.22143555 C21.34338216 7.50082367 24.79552856 8.72102428 28.25 9.9375 C28.98726318 10.19764893 29.72452637 10.45779785 30.48413086 10.72583008 C35.78284214 12.58881573 41.10398843 14.37579034 46.4375 16.13671875 C49.9956102 17.33541136 53.49115339 18.66329653 57 20 C62.445 21.98 62.445 21.98 68 24 C68 49.74 68 75.48 68 102 C53.08751191 108.88268681 53.08751191 108.88268681 46.48046875 111.515625 C45.74196182 111.81350418 45.0034549 112.11138336 44.24256897 112.41828918 C41.8922632 113.36568097 39.54016481 114.30848291 37.1875 115.25 C33.90409914 116.56430173 30.6213514 117.88019655 27.33984375 119.19921875 C26.5360025 119.522285 25.73216125 119.84535126 24.90396118 120.1782074 C20.08465155 122.12596725 15.31451294 124.15407721 10.56640625 126.26953125 C9.48270752 126.74680664 8.39900879 127.22408203 7.2824707 127.71582031 C5.32771982 128.58389904 3.38134792 129.47122406 1.44604492 130.38183594 C0.58213135 130.76243164 -0.28178223 131.14302734 -1.171875 131.53515625 C-2.2561377 132.03607788 -2.2561377 132.03607788 -3.36230469 132.54711914 C-10.38281629 133.75251057 -17.63275612 130.15805858 -23.98828125 127.48046875 C-24.81273239 127.14002029 -25.63718353 126.79957184 -26.48661804 126.44880676 C-29.09814251 125.36853946 -31.70533324 124.27823615 -34.3125 123.1875 C-36.04855041 122.46742903 -37.78487667 121.74802275 -39.52148438 121.02929688 C-44.35129034 119.02819991 -49.17609587 117.01527273 -54 115 C-56.27724471 114.05054367 -58.55457191 113.10128514 -60.83203125 112.15234375 C-61.75169678 111.76892822 -62.6713623 111.3855127 -63.61889648 110.99047852 C-65.60613033 110.16383977 -67.59574538 109.34292837 -69.5859375 108.5234375 C-70.96652344 107.95496094 -70.96652344 107.95496094 -72.375 107.375 C-73.77878906 106.79878906 -73.77878906 106.79878906 -75.2109375 106.2109375 C-78.19077866 104.91716893 -81.09437918 103.45281041 -84 102 C-84 76.26 -84 50.52 -84 24 C-61.0625 16.0625 -61.0625 16.0625 -53.64648438 13.50488281 C-40.03035642 8.81244905 -40.03035642 8.81244905 -26.53125 3.796875 C-24.83343384 3.14900024 -24.83343384 3.14900024 -23.10131836 2.48803711 C-21.15348323 1.73453617 -19.21320739 0.9610094 -17.28344727 0.16235352 C-10.92234834 -2.28832822 -6.48514555 -1.96104964 0 0 Z " fill="#E9E8EC" transform="translate(689,276)"/>
<path d="M0 0 C12.20794393 3.32943925 12.20794393 3.32943925 16.5625 5.3125 C22.46322392 7.86896547 28.47630601 9.89470857 34.59399414 11.85668945 C39.18593332 13.34161458 43.57280974 15.06467108 48 17 C50.6128857 18.03279036 53.24246379 19.01854961 55.875 20 C56.53113281 20.2475 57.18726563 20.495 57.86328125 20.75 C62.87770038 22.62674166 67.91231405 24.30410468 73 26 C73 51.41 73 76.82 73 103 C62.7385293 99.57950977 52.97400451 96.05334255 43.1953125 91.44140625 C39.42077918 89.73871335 35.5860109 88.36047627 31.6796875 86.99609375 C28.88168308 85.95601922 26.2052978 84.7606841 23.5 83.5 C18.97903158 81.39452042 14.41395118 79.62508124 9.703125 77.9921875 C6.41987924 76.7870655 3.21464608 75.37770546 0 74 C0 49.58 0 25.16 0 0 Z " fill="#4E4261" transform="translate(607,303)"/>
<path d="M0 0 C0 24.42 0 48.84 0 74 C-35.13353028 88.53801253 -35.13353028 88.53801253 -49.0222168 94.16845703 C-50.84806386 94.90936594 -52.67322641 95.65196332 -54.49780273 96.39599609 C-57.20942328 97.50173286 -59.92282169 98.60298959 -62.63671875 99.703125 C-63.86282112 100.20443939 -63.86282112 100.20443939 -65.11369324 100.71588135 C-70.77148183 103 -70.77148183 103 -73 103 C-73 77.59 -73 52.18 -73 26 C-51 18 -51 18 -47 18 C-47 26.91 -47 35.82 -47 45 C-45.02 44.401875 -43.04 43.80375 -41 43.1875 C-39.88625 42.85105469 -38.7725 42.51460938 -37.625 42.16796875 C-33.70682266 40.90553877 -29.85442987 39.4454112 -26 38 C-25.67 28.43 -25.34 18.86 -25 9 C-19.14596469 6.65838587 -13.36556722 4.35833565 -7.4375 2.25 C-6.23996094 1.82203125 -5.04242187 1.3940625 -3.80859375 0.953125 C-1 0 -1 0 0 0 Z " fill="#544967" transform="translate(755,303)"/>
<path d="M0 0 C0.33 19.47 0.66 38.94 1 59 C2.32 59.33 3.64 59.66 5 60 C4.76953125 61.890625 4.76953125 61.890625 4 64 C2.07421875 65.046875 2.07421875 65.046875 -0.3125 65.75 C-1.09238281 65.99234375 -1.87226562 66.2346875 -2.67578125 66.484375 C-5 67 -5 67 -9 67 C-9.33 65.35 -9.66 63.7 -10 62 C-10.763125 62.639375 -11.52625 63.27875 -12.3125 63.9375 C-17.1431435 67.64473804 -22.11747564 67.75058916 -28 67 C-34.42338617 64.62179128 -38.15921155 60.0889768 -41 54 C-43.96972519 46.3456379 -44.52948265 37.74679055 -41.3125 30.0625 C-38.61999996 24.93168698 -35.91454097 21.12620057 -30.8125 18.125 C-26.16369985 16.75322291 -21.79620042 16.05855108 -17 17 C-15.02 18.32 -13.04 19.64 -11 21 C-11 16.05 -11 11.1 -11 6 C-12.32 6 -13.64 6 -15 6 C-15 5.01 -15 4.02 -15 3 C-13.25531628 2.29911844 -11.50398839 1.61475991 -9.75 0.9375 C-8.77546875 0.55464844 -7.8009375 0.17179687 -6.796875 -0.22265625 C-4 -1 -4 -1 0 0 Z " fill="#E9DED6" transform="translate(1029,456)"/>
<path d="M0 0 C0.33 19.47 0.66 38.94 1 59 C2.65 59.33 4.3 59.66 6 60 C6 60.99 6 61.98 6 63 C4.44219668 63.67756882 2.87849904 64.34159457 1.3125 65 C0.44238281 65.37125 -0.42773438 65.7425 -1.32421875 66.125 C-4.0572002 67.01870488 -6.14700934 67.16449676 -9 67 C-9.33 65.68 -9.66 64.36 -10 63 C-11.7015625 63.99 -11.7015625 63.99 -13.4375 65 C-19.16485389 67.84847158 -24.15529819 67.94823394 -30.1875 65.9375 C-36.22866414 61.77580915 -40.59301658 56.29286407 -42 49 C-42.6512098 41.34828488 -43.16468415 32.77247703 -39 26 C-34.84101979 21.46152252 -30.85691653 17.31046387 -24.4765625 16.796875 C-14.87797311 16.63908997 -14.87797311 16.63908997 -11 20 C-10.67 20.66 -10.34 21.32 -10 22 C-10 17.38 -10 12.76 -10 8 C-11.65 7.34 -13.3 6.68 -15 6 C-15 5.01 -15 4.02 -15 3 C-13.25531628 2.29911844 -11.50398839 1.61475991 -9.75 0.9375 C-8.77546875 0.55464844 -7.8009375 0.17179687 -6.796875 -0.22265625 C-4 -1 -4 -1 0 0 Z " fill="#F2E7DD" transform="translate(833,456)"/>
<path d="M0 0 C4.67530734 3.19136658 7.24697489 7.51309121 9.41796875 12.64453125 C10.93087632 21.72197665 11.02453495 30.36019467 6.04296875 38.39453125 C1.7900515 43.180173 -2.7160171 46.92986361 -9.203125 47.640625 C-15.27618743 47.94566467 -20.07216768 47.15776306 -24.95703125 43.39453125 C-32.37393161 35.49965287 -33.5200802 28.0190223 -33.265625 17.51171875 C-32.89327757 10.62406384 -30.53592591 6.63067132 -25.51953125 2.01953125 C-17.76168305 -4.0034395 -8.79394352 -4.40475401 0 0 Z " fill="#F0E5DC" transform="translate(543.95703125,475.60546875)"/>
<path d="M0 0 C4.21362699 4.44940756 4.48007595 9.0841552 4.578125 14.9921875 C4.59749115 15.71758224 4.6168573 16.44297699 4.6368103 17.19035339 C4.69628358 19.49267047 4.74286095 21.79503844 4.7890625 24.09765625 C4.82727208 25.66473457 4.86632553 27.23179256 4.90625 28.79882812 C5.00195813 32.62743777 5.08610698 36.45614567 5.1640625 40.28515625 C6.4840625 40.94515625 7.8040625 41.60515625 9.1640625 42.28515625 C8.8340625 43.27515625 8.5040625 44.26515625 8.1640625 45.28515625 C6.23828125 46.234375 6.23828125 46.234375 3.8515625 46.97265625 C3.07167969 47.22402344 2.29179688 47.47539063 1.48828125 47.734375 C-0.8359375 48.28515625 -0.8359375 48.28515625 -4.8359375 48.28515625 C-5.1659375 46.30515625 -5.4959375 44.32515625 -5.8359375 42.28515625 C-6.9496875 43.21328125 -6.9496875 43.21328125 -8.0859375 44.16015625 C-13.84368884 48.60932774 -18.64506551 49.13848694 -25.8359375 48.28515625 C-30.00362605 46.23787064 -32.11511372 44.55217631 -33.8359375 40.28515625 C-34.1015625 38.06640625 -34.1015625 38.06640625 -34.0859375 35.78515625 C-34.09109375 35.03234375 -34.09625 34.27953125 -34.1015625 33.50390625 C-33.61622462 29.44990749 -32.15669266 27.57607372 -29.1484375 24.84765625 C-22.52827471 20.31733299 -13.59369007 18.0920252 -5.8359375 16.28515625 C-5.78163791 14.53550267 -5.74300927 12.78535838 -5.7109375 11.03515625 C-5.68773437 10.060625 -5.66453125 9.08609375 -5.640625 8.08203125 C-5.83730969 5.26550645 -6.39024834 3.67566589 -7.8359375 1.28515625 C-13.68681458 1.34946038 -13.68681458 1.34946038 -18.7109375 3.84765625 C-20.29029045 7.26958764 -21.59043032 10.7265643 -22.8359375 14.28515625 C-25.1459375 14.28515625 -27.4559375 14.28515625 -29.8359375 14.28515625 C-30.44367231 7.11388553 -30.44367231 7.11388553 -27.7734375 3.47265625 C-20.3373031 -2.06489065 -8.50322957 -5.14176003 0 0 Z " fill="#EFE4DB" transform="translate(776.8359375,474.71484375)"/>
<path d="M0 0 C1.52246584 0.54050517 3.04588767 1.07832608 4.5703125 1.61328125 C6.08970998 2.17654596 7.60791693 2.74303113 9.125 3.3125 C9.94194336 3.61591309 10.75888672 3.91932617 11.60058594 4.23193359 C15.49139008 5.67909532 19.37657262 7.14067705 23.2578125 8.61328125 C24.58843367 9.11747261 25.91916034 9.62138564 27.25 10.125 C28.21595093 10.49069092 28.21595093 10.49069092 29.20141602 10.86376953 C34.94679106 13.01928175 40.75640307 14.94598154 46.59765625 16.82421875 C50.16024669 18.05537802 53.54430284 19.49861701 57 21 C58.32276056 21.37308631 59.65232077 21.73046415 61 22 C61 22.66 61 23.32 61 24 C57.53554913 25.41426393 54.05197912 26.77380233 50.5625 28.125 C49.58861328 28.52332031 48.61472656 28.92164063 47.61132812 29.33203125 C40.93491186 31.87755451 36.72864101 32.37240838 30 30 C29.25016846 29.77086914 28.50033691 29.54173828 27.7277832 29.30566406 C25.42854475 28.59730419 23.15241739 27.8379157 20.875 27.0625 C19.73611328 26.68448242 19.73611328 26.68448242 18.57421875 26.29882812 C15.17894653 25.15635701 11.88807979 23.95155692 8.59765625 22.52734375 C4.00113664 20.575944 -0.69170704 19.04482813 -5.4375 17.5 C-13.4138496 14.89245673 -21.34596319 12.28073543 -29 8.8125 C-30.1446875 8.29623047 -30.1446875 8.29623047 -31.3125 7.76953125 C-31.869375 7.51558594 -32.42625 7.26164062 -33 7 C-29.52115944 3.09933535 -25.24709403 1.87904596 -20.4375 0.125 C-19.58091797 -0.22046875 -18.72433594 -0.5659375 -17.84179688 -0.921875 C-10.93690271 -3.43652419 -6.70761674 -2.71786342 0 0 Z " fill="#504563" transform="translate(644,295)"/>
<path d="M0 0 C6.6 0 13.2 0 20 0 C20 0.99 20 1.98 20 3 C19.01 3.33 18.02 3.66 17 4 C17.51043182 10.98299084 19.08143221 16.88599808 21.5 23.4375 C21.82097656 24.33404297 22.14195312 25.23058594 22.47265625 26.15429688 C24.06292346 30.65029809 24.06292346 30.65029809 26 35 C27.37388137 31.11083826 28.72058353 27.21279477 30.0625 23.3125 C30.64741211 21.65831055 30.64741211 21.65831055 31.24414062 19.97070312 C31.79038086 18.3706543 31.79038086 18.3706543 32.34765625 16.73828125 C32.68804932 15.75899658 33.02844238 14.77971191 33.37915039 13.77075195 C34.05987701 10.73277852 33.99982016 8.93743133 33 6 C31.35857037 4.9590934 29.69287785 3.95495674 28 3 C28 2.01 28 1.02 28 0 C34.6 0 41.2 0 48 0 C48 0.99 48 1.98 48 3 C47.01 3.33 46.02 3.66 45 4 C45.48435119 11.43440636 47.40565769 17.62901342 50.0625 24.5625 C50.43955078 25.57119141 50.81660156 26.57988281 51.20507812 27.61914062 C52.12758071 30.08303993 53.0593251 32.54299424 54 35 C59.65720105 20.21206364 59.65720105 20.21206364 64 5 C61.69 4.34 59.38 3.68 57 3 C57 2.01 57 1.02 57 0 C63.27 0 69.54 0 76 0 C76 0.99 76 1.98 76 3 C74.9275 3.28875 73.855 3.5775 72.75 3.875 C69.42803964 5.34624897 68.293301 6.71049837 66.9375 10.0625 C66.26437481 12.03255174 65.62352574 14.01369261 65 16 C64.51325216 17.46058342 64.02343691 18.9201467 63.53125 20.37890625 C62.49382335 23.45875667 61.47365196 26.54348531 60.46484375 29.6328125 C58.28772992 36.22054072 55.78046218 42.64465787 53 49 C51.68 49 50.36 49 49 49 C48.50802124 47.6070874 48.50802124 47.6070874 48.00610352 46.18603516 C46.79044911 42.74530582 45.57309578 39.30517963 44.35522461 35.86523438 C43.82806681 34.37549001 43.30137171 32.88558184 42.77514648 31.39550781 C42.01927942 29.25542802 41.26175777 27.11594023 40.50390625 24.9765625 C40.26845596 24.30879791 40.03300568 23.64103333 39.79042053 22.95303345 C38.53799292 19.41728116 38.53799292 19.41728116 37 16 C36.51080078 17.485 36.51080078 17.485 36.01171875 19 C32.6589741 29.1430485 29.00017616 39.09093417 25 49 C23.68 49 22.36 49 21 49 C20.81874069 48.48048264 20.63748138 47.96096527 20.45072937 47.42570496 C18.56287968 42.02027981 16.66301259 36.6191891 14.75610352 31.22045898 C14.04597688 29.20494535 13.33892405 27.18834598 12.63500977 25.1706543 C11.62281102 22.27101519 10.59963036 19.37545752 9.57421875 16.48046875 C9.26159592 15.57725388 8.94897308 14.674039 8.62687683 13.74345398 C8.1767498 12.4824865 8.1767498 12.4824865 7.7175293 11.19604492 C7.45771774 10.45658127 7.19790619 9.71711761 6.93022156 8.95524597 C5.90125851 6.79245385 4.83028958 5.53270705 3 4 C0.89667109 3.28552357 0.89667109 3.28552357 -1 3 C-0.67 2.01 -0.34 1.02 0 0 Z " fill="#EBE0D8" transform="translate(555,473)"/>
<path d="M0 0 C4.0895352 3.78499535 6.81436139 7.873455 7.1484375 13.5 C7.18420064 16.01772533 7.19989591 18.48967927 7 21 C5.14034925 22.85965075 2.05110881 22.24087549 -0.44140625 22.31640625 C-2.39916992 22.37924805 -2.39916992 22.37924805 -4.39648438 22.44335938 C-5.7851533 22.48317608 -7.17382522 22.52288825 -8.5625 22.5625 C-9.95509183 22.60567989 -11.34767028 22.649294 -12.74023438 22.69335938 C-16.16004801 22.79985876 -19.57993763 22.90186923 -23 23 C-22.71350513 24.92565212 -22.41737715 26.84987269 -22.1171875 28.7734375 C-21.95331543 29.84513184 -21.78944336 30.91682617 -21.62060547 32.02099609 C-20.66083576 36.62804174 -19.00199776 39.42700176 -15.25 42.375 C-11.7829321 43.33807442 -8.52303335 43.7060047 -5 43 C-2.30894802 40.82425584 -0.54467072 39.08934144 1 36 C2.32 36 3.64 36 5 36 C4.9375 38.1875 4.9375 38.1875 4 41 C-1.53801056 46.13938769 -6.71716756 47.37147536 -14.1484375 47.2734375 C-21.05377723 46.61128164 -25.39731112 43.13501315 -29.7734375 37.9765625 C-34.34358908 30.61192334 -33.82857347 21.35142723 -33 13 C-31.44984977 6.64159937 -27.26285526 2.65275799 -22 -1 C-15.32756146 -4.96739589 -6.43663224 -3.78625426 0 0 Z " fill="#EEE3DA" transform="translate(876,476)"/>
<path d="M0 0 C4.67729728 2.66869986 7.54337502 6.38420837 9.625 11.3125 C9.890625 13.8203125 9.890625 13.8203125 9.875 16.4375 C9.88273437 17.74074219 9.88273437 17.74074219 9.890625 19.0703125 C9.625 21.3125 9.625 21.3125 7.625 23.3125 C4.82763672 23.53955078 4.82763672 23.53955078 1.3046875 23.5078125 C-0.58056641 23.49814453 -0.58056641 23.49814453 -2.50390625 23.48828125 C-3.82261719 23.47152344 -5.14132812 23.45476562 -6.5 23.4375 C-7.83983721 23.42746983 -9.17968152 23.41834404 -10.51953125 23.41015625 C-13.80486573 23.38652075 -17.08984465 23.35357234 -20.375 23.3125 C-20.09041902 25.40350245 -19.79545601 27.49309376 -19.49609375 29.58203125 C-19.33294678 30.74581299 -19.1697998 31.90959473 -19.00170898 33.10864258 C-18.20120374 37.20098004 -17.12549823 39.22860804 -14.375 42.3125 C-10.35185134 44.99459911 -7.10280081 45.00093415 -2.375 44.3125 C1.12390004 42.19858123 2.33078686 41.19513941 3.625 37.3125 C4.945 37.3125 6.265 37.3125 7.625 37.3125 C6.18679187 42.34622844 3.72254485 44.30205889 -0.375 47.3125 C-5.44756697 49.00335566 -11.36037591 49.34352385 -16.4765625 47.59375 C-22.46838408 44.32068447 -27.76730921 39.20302792 -29.93359375 32.61328125 C-31.41124031 24.91121202 -31.7509514 15.70204703 -27.5 8.8828125 C-26.943125 8.10550781 -26.943125 8.10550781 -26.375 7.3125 C-25.7975 6.405 -25.22 5.4975 -24.625 4.5625 C-17.8455094 -2.2169906 -8.81274827 -4.01324038 0 0 Z " fill="#EFE4DB" transform="translate(343.375,474.6875)"/>
<path d="M0 0 C8.14497383 3.32547741 16.49346054 5.96640951 24.87109375 8.64135742 C26.03125 9.01969727 27.19140625 9.39803711 28.38671875 9.7878418 C29.43327637 10.12372314 30.47983398 10.45960449 31.55810547 10.80566406 C34.2350602 11.87036732 36.13675348 13.06549465 38.33203125 14.90893555 C34.87040826 16.35131599 31.38626593 17.7287465 27.89453125 19.09643555 C26.92064453 19.50313477 25.94675781 19.90983398 24.94335938 20.32885742 C19.01932961 22.60733041 15.3563714 23.42844193 9.44750977 20.88964844 C8.74940186 20.56601318 8.05129395 20.24237793 7.33203125 19.90893555 C5.94547907 19.41695398 4.55346955 18.94006291 3.15625 18.47924805 C-4.17205856 15.92935994 -11.37694877 13.24794411 -18.51171875 10.19018555 C-22.35467011 8.63017559 -26.24970012 7.2660386 -30.16796875 5.90893555 C-49.32267574 -0.74577144 -49.32267574 -0.74577144 -52.66796875 -4.09106445 C-34.16394401 -15.45277136 -18.40481577 -7.52663998 0 0 Z " fill="#524764" transform="translate(713.66796875,287.091064453125)"/>
<path d="M0 0 C0.86560547 0.10441406 1.73121094 0.20882813 2.62304688 0.31640625 C4.72954843 0.57244511 6.83381171 0.84679097 8.9375 1.125 C9.41372136 2.54004155 9.88874627 3.95548578 10.36328125 5.37109375 C10.62794189 6.1592749 10.89260254 6.94745605 11.1652832 7.75952148 C12.17739405 10.85985092 13.06813555 13.98191314 13.9375 17.125 C12.2875 17.125 10.6375 17.125 8.9375 17.125 C8.63457031 16.51011719 8.33164062 15.89523437 8.01953125 15.26171875 C4.77310547 8.94984246 4.77310547 8.94984246 -1.0625 5.125 C-1.660625 4.733125 -2.25875 4.34125 -2.875 3.9375 C-7.33210585 2.28200354 -11.53477221 2.46529936 -15.8125 4.3125 C-19.90071183 7.60578175 -22.54752793 11.10338999 -24.0625 16.125 C-24.38174909 19.69001112 -24.38698052 23.23511658 -24.375 26.8125 C-24.39111328 27.75544922 -24.40722656 28.69839844 -24.42382812 29.66992188 C-24.43001452 38.67112483 -22.84647032 46.98009549 -17.0625 54.125 C-14.25158885 56.84667588 -12.72516003 58.03849707 -8.80078125 58.55078125 C-7.67027344 58.51339844 -6.53976562 58.47601562 -5.375 58.4375 C-4.23675781 58.41300781 -3.09851563 58.38851562 -1.92578125 58.36328125 C0.88058593 58.30824683 0.88058593 58.30824683 2.9375 57.125 C5.29242985 52.81860731 5.17350193 48.58985228 5.0625 43.8125 C5.05347656 43.07193359 5.04445313 42.33136719 5.03515625 41.56835938 C5.01174213 39.75376533 4.97587615 37.93933929 4.9375 36.125 C2.6275 35.795 0.3175 35.465 -2.0625 35.125 C-2.0625 34.465 -2.0625 33.805 -2.0625 33.125 C5.1975 33.125 12.4575 33.125 19.9375 33.125 C19.9375 33.785 19.9375 34.445 19.9375 35.125 C18.9784375 35.558125 18.9784375 35.558125 18 36 C15.78543921 36.95323451 15.78543921 36.95323451 14.9375 39.125 C14.70475791 42.00410588 14.51777243 44.86646495 14.375 47.75 C14.31022461 48.95269531 14.31022461 48.95269531 14.24414062 50.1796875 C14.13798543 52.1612511 14.03723145 54.14310271 13.9375 56.125 C14.9275 56.455 15.9175 56.785 16.9375 57.125 C16.9375 57.785 16.9375 58.445 16.9375 59.125 C15.70773437 59.32416016 15.70773437 59.32416016 14.453125 59.52734375 C13.37546875 59.70394531 12.2978125 59.88054688 11.1875 60.0625 C10.12015625 60.23652344 9.0528125 60.41054688 7.953125 60.58984375 C5.09347643 61.04824465 5.09347643 61.04824465 2.96484375 61.671875 C-4.65730241 63.37547607 -13.16886159 63.07242435 -20.10546875 59.37890625 C-27.22684509 54.81610823 -31.88612114 49.44751834 -34.6796875 41.33203125 C-36.40935854 31.35994823 -36.08070159 20.35524186 -30.515625 11.7265625 C-25.5742716 4.97046426 -20.80307685 1.2058153 -12.58984375 -0.53833008 C-8.31417955 -1.10789547 -4.25180769 -0.57394456 0 0 Z " fill="#F3E8DE" transform="translate(448.0625,460.875)"/>
<path d="M0 0 C0.33 2.64 0.66 5.28 1 8 C1.55429687 7.50628906 2.10859375 7.01257813 2.6796875 6.50390625 C3.40414063 5.86324219 4.12859375 5.22257812 4.875 4.5625 C5.59429687 3.92441406 6.31359375 3.28632813 7.0546875 2.62890625 C10.90575608 -0.59578371 14.34530548 -0.39497058 19.23046875 -0.34375 C23.65861074 0.20586424 25.12577672 1.60989049 28 5 C29.95804774 9.65534975 30.3332138 14.03485398 30.4140625 19.0234375 C30.43342865 19.76961334 30.4527948 20.51578918 30.4727478 21.28457642 C30.53212065 23.64793777 30.5787578 26.01134897 30.625 28.375 C30.66321884 29.98569732 30.7022728 31.59637506 30.7421875 33.20703125 C30.83778676 37.13786016 30.921972 41.06878463 31 45 C32.65 45.33 34.3 45.66 36 46 C36 46.99 36 47.98 36 49 C29.4 49 22.8 49 16 49 C16 48.01 16 47.02 16 46 C17.98 45.505 17.98 45.505 20 45 C20.04955872 40.10702988 20.0857946 35.21420695 20.10986328 30.32104492 C20.11990057 28.65760756 20.13353331 26.99418775 20.15087891 25.33081055 C20.17522749 22.93533995 20.18650588 20.54010332 20.1953125 18.14453125 C20.20563507 17.4047554 20.21595764 16.66497955 20.22659302 15.90278625 C20.22746932 11.84009248 19.96073042 8.59979853 18 5 C15.84219588 3.7145535 15.84219588 3.7145535 13 4 C8.20675003 5.71527832 4.21916527 8.00514717 1 12 C0.43273549 15.35027419 0.43273549 15.35027419 0.57421875 19.1015625 C0.57915092 20.11807388 0.57915092 20.11807388 0.58418274 21.15512085 C0.59457656 22.58235329 0.61448106 24.00954435 0.64331055 25.43652344 C0.68749161 27.62458431 0.70476432 29.8115477 0.71679688 32 C0.40271008 38.70301412 0.40271008 38.70301412 2 45 C4.01669827 46.13350534 4.01669827 46.13350534 6 47 C6 47.66 6 48.32 6 49 C-0.6 49 -7.2 49 -14 49 C-14 48.01 -14 47.02 -14 46 C-12.35 45.34 -10.7 44.68 -9 44 C-8.9753174 39.05208706 -8.95714834 34.1042098 -8.94506836 29.15625 C-8.94003347 27.47232438 -8.93320519 25.78840314 -8.92456055 24.10449219 C-8.91245804 21.68683797 -8.90676332 19.26924144 -8.90234375 16.8515625 C-8.89718246 16.0963028 -8.89202118 15.34104309 -8.88670349 14.56289673 C-8.80679812 10.65351891 -8.80679812 10.65351891 -10 7 C-12.02463255 6.34786708 -12.02463255 6.34786708 -14 6 C-13.67 5.01 -13.34 4.02 -13 3 C-11.07421875 2.05078125 -11.07421875 2.05078125 -8.6875 1.3125 C-7.90761719 1.06113281 -7.12773437 0.80976563 -6.32421875 0.55078125 C-4 0 -4 0 0 0 Z " fill="#F4E9DF" transform="translate(372,473)"/>
<path d="M0 0 C3.01396734 1.79678822 5.52129019 3.52129019 8 6 C8.39935696 10.06243645 8.32898931 14.13097114 8.31567383 18.21142578 C8.31253308 20.2287495 8.33589784 22.24457854 8.36132812 24.26171875 C8.36197266 25.54175781 8.36261719 26.82179688 8.36328125 28.140625 C8.36626221 29.31141602 8.36924316 30.48220703 8.37231445 31.68847656 C7.86264963 36.2216527 6.36331399 39.58967518 3.1875 42.875 C0.08743762 44.46931779 -1.54337669 44.60999235 -5 44 C-9.98267418 41.1058084 -12.50486138 37.80801282 -14.41333008 32.31445312 C-15.49093708 28.0632195 -15.51252488 23.86491904 -15.5 19.5 C-15.52835938 18.60152344 -15.55671875 17.70304687 -15.5859375 16.77734375 C-15.60430619 10.4676994 -14.38466938 5.71162209 -10 1 C-6.30437707 -1.27395052 -4.20134101 -1.17637548 0 0 Z " fill="#504462" transform="translate(816,476)"/>
<path d="M0 0 C4.71811335 1.46424207 7.85445429 2.91646108 10.625 7.125 C11.52088883 11.58191442 11.59108236 15.91620655 11.48266602 20.43774414 C11.43764228 22.55580651 11.46190218 24.66506319 11.49414062 26.78320312 C11.49405779 37.9988906 11.49405779 37.9988906 7.828125 42.55078125 C5.53570481 44.8347464 3.77267405 45.54454091 0.5625 45.875 C-2.59446097 45.56773853 -3.50144894 45.03227078 -6.1875 43.0625 C-13.06769612 33.82337949 -13.17030435 23.15984791 -12.375 12.125 C-11.21002202 7.77532678 -9.08302648 4.90956988 -6.0625 1.5625 C-3.375 0.125 -3.375 0.125 0 0 Z " fill="#544966" transform="translate(1008.375,474.875)"/>
<path d="M0 0 C0.70822906 0.27290359 1.41645813 0.54580719 2.14614868 0.82698059 C4.4042258 1.69833194 6.65920044 2.5773979 8.9140625 3.45703125 C11.12427234 4.31337217 13.33510538 5.16809011 15.54595947 6.02276611 C17.01635638 6.59132284 18.48653045 7.16045623 19.95648193 7.73016357 C32.08471703 12.42599413 44.27553597 16.93897344 56.5390625 21.26953125 C56.5390625 21.92953125 56.5390625 22.58953125 56.5390625 23.26953125 C54.35783744 24.14383644 52.17156408 24.99361626 49.9765625 25.83203125 C48.75839844 26.30769531 47.54023437 26.78335937 46.28515625 27.2734375 C38.60017605 29.31688896 31.99445972 26.19267506 24.99609375 23.171875 C18.08497503 20.20724338 11.10777524 17.7536999 3.96337891 15.43041992 C0.22806193 14.20438677 -3.40442737 12.96010115 -6.9609375 11.26953125 C-9.9314268 9.90502128 -12.89601199 8.72706977 -15.99609375 7.69140625 C-16.81980469 7.41554688 -17.64351562 7.1396875 -18.4921875 6.85546875 C-22.14495622 5.64915315 -25.80101078 4.45397355 -29.4609375 3.26953125 C-28.07195269 0.49156164 -26.15046942 0.24197524 -23.33398438 -0.73242188 C-22.65400391 -0.95865234 -21.97402344 -1.18488281 -21.2734375 -1.41796875 C-20.2824707 -1.7747168 -20.2824707 -1.7747168 -19.27148438 -2.13867188 C-12.06785362 -4.56358608 -6.83090241 -2.68448474 0 0 Z " fill="#524764" transform="translate(668.4609375,288.73046875)"/>
<path d="M0 0 C4.62216484 2.0292431 8.20588514 4.659293 10.67578125 9.1484375 C12.63447055 14.58820969 12.85399103 20.08873355 12.9375 25.8125 C12.95159912 26.52510986 12.96569824 27.23771973 12.98022461 27.97192383 C12.92444049 34.05239322 11.43099737 38.61219319 7.75 43.5625 C4.7523849 45.70365364 3.18258106 45.70421297 -0.4375 45.125 C-5.83077765 42.64409228 -7.56634966 39.524123 -9.67578125 34.24609375 C-12.70841441 25.80137679 -12.91551599 14.28431297 -9.484375 5.8359375 C-7.2098833 2.11867122 -4.33071412 0.2220879 0 0 Z " fill="#4B3F5E" transform="translate(531.4375,474.875)"/>
<path d="M0 0 C13.86 0.33 27.72 0.66 42 1 C37.50422018 9.99155963 37.50422018 9.99155963 34.8203125 14.22265625 C34.22750488 15.16286621 33.63469727 16.10307617 33.02392578 17.07177734 C32.39728027 18.05871582 31.77063477 19.0456543 31.125 20.0625 C25.72741058 28.62838491 20.38521584 37.22399768 15.125 45.875 C14.52445801 46.86121338 13.92391602 47.84742676 13.30517578 48.86352539 C10.52611131 53.36112456 10.52611131 53.36112456 8 58 C11.04370043 57.9397287 14.08267412 57.85260043 17.125 57.75 C18.40890625 57.72873047 18.40890625 57.72873047 19.71875 57.70703125 C25.2567864 57.49402985 28.64634782 56.73933317 33 53 C34.44635293 51.19389432 35.54989484 49.37677325 36.7265625 47.390625 C37.35691406 46.70226562 37.35691406 46.70226562 38 46 C39.32 46 40.64 46 42 46 C40.41037341 50.03520597 38.71767682 54.01811282 37 58 C37.66 58 38.32 58 39 58 C39 58.99 39 59.98 39 61 C24.81 61 10.62 61 -4 61 C-2.30526712 56.76316779 -0.36768288 53.1833009 2.0625 49.375 C4.92816537 44.89227657 4.92816537 44.89227657 7 40 C7.66 40 8.32 40 9 40 C9.26804443 39.2776416 9.53608887 38.5552832 9.81225586 37.81103516 C10.9971921 35.00664547 12.37804833 32.59413454 14.00390625 30.0234375 C14.86725586 28.64671875 14.86725586 28.64671875 15.74804688 27.2421875 C16.34681641 26.29601562 16.94558594 25.34984375 17.5625 24.375 C18.75413939 22.48876867 19.94306995 20.60082251 21.12890625 18.7109375 C21.65556885 17.87868652 22.18223145 17.04643555 22.72485352 16.18896484 C24.13177552 13.94513875 24.13177552 13.94513875 25 11 C25.66 11 26.32 11 27 11 C27.309375 10.21625 27.61875 9.4325 27.9375 8.625 C29 6 29 6 30 4 C26.10473501 3.8253646 22.2104781 3.71903508 18.3125 3.625 C17.20970703 3.57472656 16.10691406 3.52445312 14.97070312 3.47265625 C9.28196697 3.18852189 9.28196697 3.18852189 4.18505859 5.25683594 C2.63576128 7.0067916 2.63576128 7.0067916 1 10 C0.01 11.485 0.01 11.485 -1 13 C-1.66 13 -2.32 13 -3 13 C-2.68817931 11.58318366 -2.37551263 10.16655349 -2.0625 8.75 C-1.88847656 7.96109375 -1.71445312 7.1721875 -1.53515625 6.359375 C-1.0527843 4.23271327 -0.52889301 2.11557202 0 0 Z " fill="#F5EAE0" transform="translate(264,461)"/>
<path d="M0 0 C14.52 0 29.04 0 44 0 C43.34 3.96 42.68 7.92 42 12 C40.68 12.33 39.36 12.66 38 13 C37.505 9.04 37.505 9.04 37 5 C31.555 4.505 31.555 4.505 26 4 C26 21.49 26 38.98 26 57 C28.31 57.33 30.62 57.66 33 58 C33 58.99 33 59.98 33 61 C25.41 61 17.82 61 10 61 C10.33 60.01 10.66 59.02 11 58 C12.98 57.505 12.98 57.505 15 57 C15.33 39.51 15.66 22.02 16 4 C10.555 4.495 10.555 4.495 5 5 C2.1040382 8.62168753 2.1040382 8.62168753 1 11.28515625 C0.505 12.13400391 0.505 12.13400391 0 13 C-0.99 13 -1.98 13 -3 13 C-2.69128878 11.20767663 -2.37790936 9.41615679 -2.0625 7.625 C-1.88847656 6.62726563 -1.71445312 5.62953125 -1.53515625 4.6015625 C-1 2 -1 2 0 0 Z " fill="#EBE0D8" transform="translate(658,461)"/>
<path d="M0 0 C6.75 0.875 6.75 0.875 9 2 C9 27.74 9 53.48 9 80 C-5.91454276 86.88363512 -5.91454276 86.88363512 -12.51953125 89.515625 C-13.62756355 89.96237579 -13.62756355 89.96237579 -14.75798035 90.41815186 C-17.10823811 91.36524235 -19.46022411 92.30793433 -21.8125 93.25 C-25.09064882 94.56571291 -28.3679616 95.8834844 -31.64453125 97.203125 C-32.44754669 97.52639771 -33.25056213 97.84967041 -34.07791138 98.18273926 C-38.93503433 100.14504999 -43.7631794 102.16160639 -48.57421875 104.234375 C-49.67596436 104.70713867 -50.77770996 105.17990234 -51.9128418 105.66699219 C-53.91520681 106.53159582 -55.91310677 107.40664363 -57.90551758 108.29394531 C-58.78232178 108.67131836 -59.65912598 109.04869141 -60.5625 109.4375 C-61.30628906 109.76621094 -62.05007813 110.09492188 -62.81640625 110.43359375 C-65.50614734 111.13129045 -67.34427983 110.71410402 -70 110 C-70 109.34 -70 108.68 -70 108 C-69.34 108 -68.68 108 -68 108 C-68 82.59 -68 57.18 -68 31 C-70.31 30.34 -72.62 29.68 -75 29 C-75 28.34 -75 27.68 -75 27 C-74.3709375 27.10699219 -73.741875 27.21398437 -73.09375 27.32421875 C-66.66973875 28.22396731 -62.91397914 27.5938505 -57 25 C-56.01 25 -55.02 25 -54 25 C-54.33 25.99 -54.66 26.98 -55 28 C-60.445 29.485 -60.445 29.485 -66 31 C-66 56.41 -66 81.82 -66 108 C-60.121875 105.586875 -54.24375 103.17375 -48.1875 100.6875 C-44.60818876 99.21976802 -41.02881435 97.75219403 -37.44921875 96.28515625 C-31.82682077 93.98079914 -26.20535643 91.67425898 -20.58747864 89.35890198 C-18.70639373 88.58407517 -16.82466079 87.81084874 -14.94262695 87.03833008 C-12.70690251 86.12047966 -10.47229598 85.1998997 -8.23901367 84.27612305 C-6.74398315 83.66377808 -6.74398315 83.66377808 -5.21875 83.0390625 C-4.37248047 82.69053223 -3.52621094 82.34200195 -2.65429688 81.98291016 C0.5042956 80.81325478 3.76139092 79.92531688 7 79 C6.67 54.91 6.34 30.82 6 6 C-5.385 9.96 -5.385 9.96 -17 14 C-17.33 23.57 -17.66 33.14 -18 43 C-33.75 50 -33.75 50 -39 50 C-39 41.09 -39 32.18 -39 23 C-38.67 23 -38.34 23 -38 23 C-38 30.92 -38 38.84 -38 47 C-33.52575753 45.35978351 -33.52575753 45.35978351 -29.05541992 43.70898438 C-26.22363626 42.68412514 -24.03435748 42 -21 42 C-21 33.09 -21 24.18 -21 15 C-21.99 14.67 -22.98 14.34 -24 14 C-23.67 13.34 -23.34 12.68 -23 12 C-23.66 12 -24.32 12 -25 12 C-25 11.34 -25 10.68 -25 10 C-23.57494141 10.35384766 -23.57494141 10.35384766 -22.12109375 10.71484375 C-16.97199676 11.45042903 -12.76978575 9.46331273 -8.0625 7.5625 C-7.18787109 7.22412109 -6.31324219 6.88574219 -5.41210938 6.53710938 C-3.26873011 5.70552507 -1.1322182 4.85970885 1 4 C0.505 2.02 0.505 2.02 0 0 Z " fill="#FBFAFB" transform="translate(748,298)"/>
<path d="M0 0 C7.26 0 14.52 0 22 0 C22 0.66 22 1.32 22 2 C20.35 2.66 18.7 3.32 17 4 C16.67 21.49 16.34 38.98 16 57 C30.35411136 57.14840253 30.35411136 57.14840253 36 54 C37.5452303 51.8445416 37.5452303 51.8445416 38.75 49.375 C39.17796875 48.55773437 39.6059375 47.74046875 40.046875 46.8984375 C40.36140625 46.27195312 40.6759375 45.64546875 41 45 C41.99 45 42.98 45 44 45 C43.77213542 46.5625 43.54427083 48.125 43.31640625 49.6875 C42.846633 53.12090452 42.42982919 56.56136649 42 60 C28.14 60 14.28 60 0 60 C0 59.01 0 58.02 0 57 C2.97 56.505 2.97 56.505 6 56 C5.67 38.84 5.34 21.68 5 4 C3.35 3.67 1.7 3.34 0 3 C0 2.01 0 1.02 0 0 Z " fill="#EBE0D8" transform="translate(910,462)"/>
<path d="M0 0 C0.33 1.98 0.66 3.96 1 6 C1.763125 5.195625 2.52625 4.39125 3.3125 3.5625 C6.83645476 0.20245011 9.29969105 -0.16606591 14 -0.25 C15.299375 -0.28867187 15.299375 -0.28867187 16.625 -0.328125 C19 0 19 0 20.828125 1.3515625 C22 3 22 3 21.75 5.625 C21 8 21 8 20 9 C17.6875 9.25 17.6875 9.25 15 9 C14.360625 8.484375 13.72125 7.96875 13.0625 7.4375 C11.00862487 5.72276899 11.00862487 5.72276899 8 5.9375 C3.90449668 7.38799076 3.04791441 9.21609435 1 13 C0.45435671 16.56917658 0.45435671 16.56917658 0.609375 20.3671875 C0.61503479 21.04677521 0.62069458 21.72636292 0.62652588 22.42654419 C0.64874649 24.57677549 0.69890802 26.72528074 0.75 28.875 C0.77008386 30.3411216 0.78833132 31.80726958 0.8046875 33.2734375 C0.84856189 36.84951008 0.91748557 40.42458631 1 44 C2.65 44.66 4.3 45.32 6 46 C6 46.99 6 47.98 6 49 C-0.6 49 -7.2 49 -14 49 C-14 48.01 -14 47.02 -14 46 C-12.02 45.505 -12.02 45.505 -10 45 C-10 32.13 -10 19.26 -10 6 C-11.32 6 -12.64 6 -14 6 C-13 3 -13 3 -11.328125 2.05078125 C-7.43666975 0.66829057 -4.19816517 -0.39357798 0 0 Z " fill="#EEE3DB" transform="translate(719,473)"/>
<path d="M0 0 C0 2.64 0 5.28 0 8 C0.40992188 7.50628906 0.81984375 7.01257813 1.2421875 6.50390625 C1.78101563 5.86324219 2.31984375 5.22257812 2.875 4.5625 C3.40867187 3.92441406 3.94234375 3.28632813 4.4921875 2.62890625 C6.38336385 0.58584787 7.47373901 0.05592669 10.2421875 -0.23828125 C17.4216221 -0.44066887 17.4216221 -0.44066887 20.625 2 C21.305625 2.99 21.305625 2.99 22 4 C21.34 5.65 20.68 7.3 20 9 C18.02 9 16.04 9 14 9 C13.34 7.68 12.68 6.36 12 5 C6.59212615 6.09786425 6.59212615 6.09786425 3 10 C2.34 10 1.68 10 1 10 C1 21.55 1 33.1 1 45 C2.32 45.66 3.64 46.32 5 47 C5 47.66 5 48.32 5 49 C-1.6 49 -8.2 49 -15 49 C-14.67 48.01 -14.34 47.02 -14 46 C-12.02 45.505 -12.02 45.505 -10 45 C-9.67 32.46 -9.34 19.92 -9 7 C-11.97 6.505 -11.97 6.505 -15 6 C-15 5.34 -15 4.68 -15 4 C-13.44219668 3.32243118 -11.87849904 2.65840543 -10.3125 2 C-9.44238281 1.62875 -8.57226562 1.2575 -7.67578125 0.875 C-4.9427998 -0.01870488 -2.85299066 -0.16449676 0 0 Z " fill="#F2E7DD" transform="translate(487,473)"/>
<path d="M0 0 C1.32 0 2.64 0 4 0 C4 4.29 4 8.58 4 13 C7.63 13 11.26 13 15 13 C15 14.32 15 15.64 15 17 C11.37 17 7.74 17 4 17 C4.09339475 22.51788338 4.19945631 28.03532065 4.31738281 33.55273438 C4.35571977 35.43059576 4.39056427 37.30853176 4.421875 39.18652344 C4.46742363 41.88243321 4.52543375 44.57782712 4.5859375 47.2734375 C4.59748871 48.11619232 4.60903992 48.95894714 4.62094116 49.82723999 C4.54193181 54.39020957 4.54193181 54.39020957 7 58 C10.0913386 58.23779528 12.03104944 57.98965019 15 57 C14.8125 58.875 14.8125 58.875 14 61 C10.09387815 63.29771874 6.44981794 63.32362312 2 63 C-0.80502695 62.14290843 -1.77426313 61.28635365 -3.59106445 58.98168945 C-5.52071291 54.89803036 -5.37640769 51.43844169 -5.29296875 46.98046875 C-5.28872391 46.12189774 -5.28447906 45.26332672 -5.28010559 44.3787384 C-5.26336995 41.64800086 -5.22572766 38.91801288 -5.1875 36.1875 C-5.17244653 34.3313909 -5.15875928 32.47527018 -5.14648438 30.61914062 C-5.11348323 26.07914015 -5.06173659 21.53969698 -5 17 C-6.65 17 -8.3 17 -10 17 C-9.8125 15.125 -9.8125 15.125 -9 13 C-6.5625 11.875 -6.5625 11.875 -4 11 C-1.6870518 8.6870518 -1.50419025 7.52095125 -0.875 4.375 C-0.70742188 3.55773437 -0.53984375 2.74046875 -0.3671875 1.8984375 C-0.24601563 1.27195312 -0.12484375 0.64546875 0 0 Z " fill="#F0E5DC" transform="translate(968,460)"/>
<path d="M0 0 C0 0.66 0 1.32 0 2 C-1.2375 2.226875 -2.475 2.45375 -3.75 2.6875 C-7.96256885 3.74436356 -9.70945137 5.21178496 -12 9 C-14.07790427 13.20081729 -14.34902183 17.07593706 -14.3125 21.6875 C-14.30903564 22.39358398 -14.30557129 23.09966797 -14.30200195 23.82714844 C-14.16698831 30.35852682 -13.41121511 36.78504652 -9.39453125 42.140625 C-8 44 -8 44 -8 46 C-4.535 46.495 -4.535 46.495 -1 47 C-0.67 47.99 -0.34 48.98 0 50 C-6.31249401 50.58209473 -10.98608214 50.37217274 -16.24609375 46.62109375 C-21.56099234 41.70865964 -24.56424736 35.03831223 -25.3359375 27.88671875 C-25.44429033 19.01262167 -23.97012555 12.77928427 -18.6875 5.625 C-13.05274307 0.12128393 -7.48983768 -0.45856149 0 0 Z " fill="#EFE4DB" transform="translate(1011,473)"/>
<path d="M0 0 C0 8.91 0 17.82 0 27 C-3.403125 28.2375 -3.403125 28.2375 -6.875 29.5 C-7.94403564 29.89155273 -7.94403564 29.89155273 -9.03466797 30.29101562 C-13.77777778 32 -13.77777778 32 -16 32 C-16 23.09 -16 14.18 -16 5 C-12.596875 3.7625 -12.596875 3.7625 -9.125 2.5 C-8.41230957 2.23896484 -7.69961914 1.97792969 -6.96533203 1.70898438 C-2.22222222 0 -2.22222222 0 0 0 Z " fill="#514664" transform="translate(727,313)"/>
<path d="M0 0 C0 5.61 0 11.22 0 17 C-0.66 17 -1.32 17 -2 17 C-2.2475 17.763125 -2.495 18.52625 -2.75 19.3125 C-4.19058109 22.40974934 -4.95022608 23.47511304 -8 25 C-10.72028325 25.23971845 -13.25876407 25.1370618 -16 25 C-16 24.34 -16 23.68 -16 23 C-16.66 23 -17.32 23 -18 23 C-19.5895614 18.98426593 -20.42165933 16.15150455 -19.1875 11.9375 C-16.51512247 5.79341773 -10.5065397 3.00261588 -4.5625 0.625 C-2 0 -2 0 0 0 Z " fill="#524664" transform="translate(772,494)"/>
<path d="M0 0 C3.57665512 2.91123091 5.90050391 5.50206147 7 10 C7 13.3 7 16.6 7 20 C0.07 20 -6.86 20 -14 20 C-14 9.95238095 -14 9.95238095 -12 5 C-8.22796505 1.4165668 -5.28590367 -0.73756795 0 0 Z " fill="#524765" transform="translate(867,475)"/>
<path d="M0 0 C4.10572196 3.43734862 6.62576312 6.4721358 7.4140625 11.796875 C7.609375 14.53125 7.8046875 17.265625 8 20 C0.74 20 -6.52 20 -14 20 C-14 10.59961649 -13.30267777 7.30267777 -7 1 C-4.334449 -0.3327755 -2.94450049 -0.57453668 0 0 Z " fill="#453958" transform="translate(337,475)"/>
<path d="M0 0 C4.19272285 0.3528238 7.62143777 1.53953807 11.4375 3.25 C16.15094123 5.28094728 20.8762327 7.03440828 25.75 8.625 C26.39549805 8.83608398 27.04099609 9.04716797 27.70605469 9.26464844 C28.3302832 9.46864258 28.95451172 9.67263672 29.59765625 9.8828125 C35.4452327 11.80291223 41.08592703 14.03300967 46.75 16.4375 C48.83068023 17.29810923 50.91407252 18.15218809 53 19 C54.02996094 19.4228125 55.05992187 19.845625 56.12109375 20.28125 C62.87747167 22.82887785 67.18897791 23.39165661 74 21 C75.35256878 20.61927694 76.70663071 20.24379645 78.0625 19.875 C79.031875 19.58625 80.00125 19.2975 81 19 C81.495 19.99 81.495 19.99 82 21 C80.23141309 21.67260351 78.46003984 22.33788395 76.6875 23 C75.20830078 23.556875 75.20830078 23.556875 73.69921875 24.125 C71 25 71 25 68 25 C68.01571045 25.80219971 68.0314209 26.60439941 68.04760742 27.4309082 C68.10988583 31.05803404 68.14896864 34.68504749 68.1875 38.3125 C68.21263672 39.57513672 68.23777344 40.83777344 68.26367188 42.13867188 C68.27333984 43.34716797 68.28300781 44.55566406 68.29296875 45.80078125 C68.3086792 46.91622314 68.32438965 48.03166504 68.34057617 49.1809082 C68 52 68 52 65 55 C65 46.09 65 37.18 65 28 C60.38 29.32 55.76 30.64 51 32 C51 31.01 51 30.02 51 29 C52.26839526 28.49384702 53.53983102 27.99530901 54.8125 27.5 C55.52019531 27.2215625 56.22789062 26.943125 56.95703125 26.65625 C59 26 59 26 62 26 C62 25.34 62 24.68 62 24 C61.00097656 23.89171875 60.00195312 23.7834375 58.97265625 23.671875 C54.91453338 23.08908658 51.2334229 21.75867224 47.4375 20.25 C46.0303317 19.7060374 44.62277141 19.16308788 43.21484375 18.62109375 C42.16079346 18.21286377 42.16079346 18.21286377 41.08544922 17.79638672 C36.84576228 16.17734448 32.56034072 14.68696499 28.28125 13.17578125 C25.23654461 12.08476182 22.20817251 10.95863105 19.18164062 9.81860352 C15.12811243 8.29762321 11.06322351 6.80734183 7 5.3125 C6.12988281 4.99216797 5.25976562 4.67183594 4.36328125 4.34179688 C2.24226625 3.56098366 0.12117124 2.78038863 -2 2 C-1.34 1.34 -0.68 0.68 0 0 Z " fill="#DCDAE0" transform="translate(643,293)"/>
<path d="M0 0 C0 0.66 0 1.32 0 2 C-9.9 5.465 -9.9 5.465 -20 9 C-20.33 18.57 -20.66 28.14 -21 38 C-36.75 45 -36.75 45 -42 45 C-42 36.09 -42 27.18 -42 18 C-41.67 18 -41.34 18 -41 18 C-41 25.92 -41 33.84 -41 42 C-36.52575753 40.35978351 -36.52575753 40.35978351 -32.05541992 38.70898438 C-29.22363626 37.68412514 -27.03435748 37 -24 37 C-24 28.09 -24 19.18 -24 10 C-24.99 9.67 -25.98 9.34 -27 9 C-26.67 8.34 -26.34 7.68 -26 7 C-26.66 7 -27.32 7 -28 7 C-28 6.34 -28 5.68 -28 5 C-27.04738281 5.2371875 -26.09476563 5.474375 -25.11328125 5.71875 C-19.98774856 6.45189091 -15.85362078 4.42957185 -11.1875 2.5 C-9.49613409 1.81633745 -7.80222978 1.13891053 -6.10546875 0.46875 C-5.36449951 0.16388672 -4.62353027 -0.14097656 -3.86010742 -0.45507812 C-2 -1 -2 -1 0 0 Z " fill="#E8E7EA" transform="translate(751,303)"/>
<path d="M0 0 C0.87527344 0.31453125 1.75054688 0.6290625 2.65234375 0.953125 C3.50957031 1.25734375 4.36679687 1.5615625 5.25 1.875 C8.13034246 3.02039934 10.9177963 4.25937219 13.73046875 5.55859375 C20.45539074 8.64438036 27.33582815 11.26520584 34.24804688 13.89648438 C39.24815326 15.8221784 44.06892503 17.86347412 48.82739258 20.32592773 C51.3443683 21.57866271 53.93853486 22.52516689 56.58984375 23.453125 C57.53859375 23.78828125 58.48734375 24.1234375 59.46484375 24.46875 C60.16609375 24.71109375 60.86734375 24.9534375 61.58984375 25.203125 C61.58984375 26.193125 61.58984375 27.183125 61.58984375 28.203125 C54.93915736 26.09837859 48.50689742 23.6131708 42.0703125 20.9296875 C41.09048904 20.52406586 40.11066559 20.11844421 39.10115051 19.70053101 C35.99200602 18.41262232 32.88465777 17.12044286 29.77734375 15.828125 C27.70389269 14.96846859 25.63032593 14.10909119 23.55664062 13.25 C19.61511642 11.6166139 15.67491314 9.98010765 11.73583984 8.34082031 C8.68479286 7.07147703 5.63168913 5.80782766 2.57275391 4.55761719 C1.50202637 4.11836914 0.43129883 3.67912109 -0.671875 3.2265625 C-1.54158936 2.87255371 -2.41130371 2.51854492 -3.30737305 2.15380859 C-5.41015625 1.203125 -5.41015625 1.203125 -8.41015625 -0.796875 C-5.32942591 -2.33724017 -3.16438018 -1.04624564 0 0 Z " fill="#E5E3E8" transform="translate(616.41015625,379.796875)"/>
<path d="M0 0 C18.81 0 37.62 0 57 0 C57 0.99 57 1.98 57 3 C37.86 3 18.72 3 -1 3 C-0.67 2.01 -0.34 1.02 0 0 Z " fill="#D1CED6" transform="translate(538,357)"/>
<path d="M0 0 C3.90561183 0.99717749 7.47685187 2.15747683 11.1328125 3.859375 C15.97503387 6.04186839 20.91089972 7.79486521 25.9375 9.5 C31.93425432 11.56472611 37.88274162 13.66688428 43.74609375 16.08984375 C48.11557005 17.85429432 52.56319414 19.41422148 57 21 C56.505 22.485 56.505 22.485 56 24 C47.37665231 21.60570708 39.10390839 18.46579926 30.81103516 15.11572266 C24.03867886 12.3852633 17.21637507 9.80200747 10.375 7.25 C9.27542969 6.83878906 8.17585937 6.42757813 7.04296875 6.00390625 C4.36235614 5.00159023 1.68136254 4.00030769 -1 3 C-0.67 2.01 -0.34 1.02 0 0 Z " fill="#E0DEE3" transform="translate(667,286)"/>
<path d="M0 0 C0 0.66 0 1.32 0 2 C-13.56983275 8.03794292 -27.24526338 13.81276705 -40.97702026 19.47094727 C-42.73979996 20.19760199 -44.50194912 20.92578822 -46.26345825 21.65551758 C-48.77006744 22.69306486 -51.27915302 23.7243725 -53.7890625 24.75390625 C-54.54345108 25.06703262 -55.29783966 25.380159 -56.0750885 25.70277405 C-59.70068857 27.18138544 -63.10078913 28.41689117 -67 29 C-66 26 -66 26 -62.91845703 24.45703125 C-61.53614867 23.89742242 -60.14880233 23.35016693 -58.7578125 22.8125 C-58.01021164 22.51320084 -57.26261078 22.21390167 -56.49235535 21.90553284 C-54.04057593 20.92659215 -51.58296807 19.96328386 -49.125 19 C-47.44251142 18.33175719 -45.76046543 17.66239899 -44.07885742 16.99194336 C-40.6826542 15.63866112 -37.284541 14.29033918 -33.88525391 12.94482422 C-29.44569835 11.18304743 -25.02191243 9.3852507 -20.60546875 7.56640625 C-19.97406982 7.30669037 -19.3426709 7.04697449 -18.69213867 6.77938843 C-15.76047896 5.5727036 -12.83015462 4.36285167 -9.90087891 3.15039062 C-8.87784668 2.73080078 -7.85481445 2.31121094 -6.80078125 1.87890625 C-5.91559814 1.5135376 -5.03041504 1.14816895 -4.1184082 0.77172852 C-2 0 -2 0 0 0 Z " fill="#EEEDF0" transform="translate(750,379)"/>
<path d="M0 0 C1.66801405 0.43233453 3.33433808 0.87119012 5 1.3125 C5.928125 1.55613281 6.85625 1.79976563 7.8125 2.05078125 C10.91325852 2.9741689 13.8964344 4.0536851 16.91601562 5.20825195 C20.34010737 6.50913404 23.79523858 7.72092217 27.25 8.9375 C27.98726318 9.19764893 28.72452637 9.45779785 29.48413086 9.72583008 C33.83056755 11.2540034 38.18764215 12.74218483 42.5625 14.1875 C54.9151603 18.27677353 54.9151603 18.27677353 59 21 C55.40884602 22.27880374 53.27030293 21.70556554 49.7109375 20.48828125 C48.68613281 20.14216797 47.66132812 19.79605469 46.60546875 19.43945312 C45.53941406 19.06755859 44.47335937 18.69566406 43.375 18.3125 C42.33214844 17.95994141 41.28929687 17.60738281 40.21484375 17.24414062 C35.40784339 15.60279906 30.65397598 13.8899185 25.953125 11.96484375 C20.52092235 9.75299752 14.97274747 7.99135535 9.375 6.25 C8.37082031 5.93417969 7.36664062 5.61835938 6.33203125 5.29296875 C3.88908208 4.52518473 1.44509287 3.76092368 -1 3 C-0.67 2.01 -0.34 1.02 0 0 Z " fill="#E8E7EA" transform="translate(690,277)"/>
<path d="M0 0 C1.640625 0.2265625 1.640625 0.2265625 4 1 C5.19109375 1.35835938 6.3821875 1.71671875 7.609375 2.0859375 C14.48318844 4.21530284 21.29281045 6.38533289 28 9 C29.76936044 9.64985769 31.54033202 10.29533801 33.3125 10.9375 C34.23289062 11.27136719 35.15328125 11.60523438 36.1015625 11.94921875 C37.05804687 12.29597656 38.01453125 12.64273437 39 13 C41.06257471 13.74979453 43.12507741 14.49978716 45.1875 15.25 C46.10917969 15.58515625 47.03085937 15.9203125 47.98046875 16.265625 C48.64691406 16.50796875 49.31335938 16.7503125 50 17 C49.505 18.485 49.505 18.485 49 20 C41.87931182 17.96110447 34.94099397 15.57975232 28 13 C26.16719858 12.33187239 24.3338659 11.66520029 22.5 11 C21.14455078 10.50693359 21.14455078 10.50693359 19.76171875 10.00390625 C17.8896255 9.32338579 16.01721947 8.64372525 14.14453125 7.96484375 C8.75068945 6.00818114 3.36828322 4.02576725 -2 2 C-1.34 1.34 -0.68 0.68 0 0 Z " fill="#E2E0E5" transform="translate(624,307)"/>
<path d="M0 0 C2.4375 0.4375 2.4375 0.4375 4.25 1.5 C6.12771039 4.56363274 5.87479494 6.93914045 5.4375 10.4375 C3.32922636 12.85811048 2.03404522 13.3502007 -1.125 13.8125 C-3.5625 13.4375 -3.5625 13.4375 -5.375 12.3125 C-7.14094751 9.52416183 -7.02431576 7.67021032 -6.5625 4.4375 C-4.55049381 1.60578758 -3.44178233 0.58762137 0 0 Z " fill="#E0DEE3" transform="translate(860.5625,558.5625)"/>
<path d="M0 0 C12.54 0 25.08 0 38 0 C38 0.99 38 1.98 38 3 C25.79 3 13.58 3 1 3 C0.67 2.01 0.34 1.02 0 0 Z " fill="#DFDDE3" transform="translate(557,314)"/>
<path d="M0 0 C3.0625 0.1875 3.0625 0.1875 5.0625 2.1875 C4.8975 3.30125 4.7325 4.415 4.5625 5.5625 C4.06568436 9.16441339 4.08166027 10.2745004 6.0625 13.1875 C5.0725 13.1875 4.0825 13.1875 3.0625 13.1875 C1.375 11.1875 1.375 11.1875 0.0625 9.1875 C-0.2675 10.5075 -0.5975 11.8275 -0.9375 13.1875 C-1.9275 13.1875 -2.9175 13.1875 -3.9375 13.1875 C-3.96436553 11.20840602 -3.98383375 9.22921029 -4 7.25 C-4.01160156 6.14785156 -4.02320313 5.04570313 -4.03515625 3.91015625 C-3.89929432 0.12232574 -3.80732768 0.24302092 0 0 Z " fill="#E0DEE3" transform="translate(965.9375,558.8125)"/>
<path d="M0 0 C3.0625 0.1875 3.0625 0.1875 5.0625 2.1875 C4.8975 3.30125 4.7325 4.415 4.5625 5.5625 C4.06568436 9.16441339 4.08166027 10.2745004 6.0625 13.1875 C5.0725 13.1875 4.0825 13.1875 3.0625 13.1875 C2.77375 12.548125 2.485 11.90875 2.1875 11.25 C1.23426549 9.03543921 1.23426549 9.03543921 -0.9375 8.1875 C-0.9375 9.8375 -0.9375 11.4875 -0.9375 13.1875 C-1.9275 13.1875 -2.9175 13.1875 -3.9375 13.1875 C-3.96436553 11.20840602 -3.98383375 9.22921029 -4 7.25 C-4.01160156 6.14785156 -4.02320313 5.04570313 -4.03515625 3.91015625 C-3.89929432 0.12232574 -3.80732768 0.24302092 0 0 Z " fill="#DFDDE2" transform="translate(503.9375,558.8125)"/>
<path d="M0 0 C0.66 0 1.32 0 2 0 C3.38232443 1.62626404 4.71937515 3.2925002 6 5 C6.66 3.35 7.32 1.7 8 0 C8.66 0 9.32 0 10 0 C10 4.29 10 8.58 10 13 C5.82200357 10.91100178 5.07608099 9.94455388 3 6 C2.67 8.31 2.34 10.62 2 13 C1.01 12.67 0.02 12.34 -1 12 C-1.02687279 10.18757948 -1.04633715 8.37504767 -1.0625 6.5625 C-1.07410156 5.55316406 -1.08570313 4.54382813 -1.09765625 3.50390625 C-1 1 -1 1 0 0 Z " fill="#D5D2D9" transform="translate(446,559)"/>
<path d="M0 0 C6 0 6 0 9 2 C8.814375 3.0725 8.62875 4.145 8.4375 5.25 C8.0695432 8.40391546 7.95534657 10.09818492 9 13 C5.66462511 11.88820837 4.36292656 10.52588702 2 8 C2 9.65 2 11.3 2 13 C1.34 13 0.68 13 0 13 C0 8.71 0 4.42 0 0 Z " fill="#B7B2BF" transform="translate(828,559)"/>
<path d="M0 0 C1.175625 0.0825 2.35125 0.165 3.5625 0.25 C5.5625 3.25 5.5625 3.25 5.1875 6.4375 C4.98125 7.365625 4.775 8.29375 4.5625 9.25 C1.1875 9.875 1.1875 9.875 -2.4375 10.25 C-4.4375 8.25 -4.4375 8.25 -4.625 4.6875 C-4.38672005 0.31903419 -4.38672005 0.31903419 0 0 Z " fill="#EEE3DA" transform="translate(1045.4375,512.75)"/>
<path d="M0 0 C3.375 -0.125 3.375 -0.125 7 0 C9 2 9 2 9.1875 4.5625 C9 7 9 7 8 8 C6.33382885 8.04063832 4.66611905 8.042721 3 8 C3 9.65 3 11.3 3 13 C2.01 13 1.02 13 0 13 C0 8.71 0 4.42 0 0 Z " fill="#C4C0CA" transform="translate(909,559)"/>
<path d="M0 0 C3.0625 0.1875 3.0625 0.1875 5.0625 2.1875 C4.6875 5.3125 4.6875 5.3125 4.0625 8.1875 C2.4125 8.1875 0.7625 8.1875 -0.9375 8.1875 C-0.9375 9.8375 -0.9375 11.4875 -0.9375 13.1875 C-1.9275 13.1875 -2.9175 13.1875 -3.9375 13.1875 C-3.96436553 11.20840602 -3.98383375 9.22921029 -4 7.25 C-4.01160156 6.14785156 -4.02320313 5.04570313 -4.03515625 3.91015625 C-3.89929432 0.12232574 -3.80732768 0.24302092 0 0 Z " fill="#CFCCD4" transform="translate(341.9375,558.8125)"/>
<path d="M0 0 C1.98 0 3.96 0 6 0 C6.66 0.66 7.32 1.32 8 2 C7.835 2.928125 7.67 3.85625 7.5 4.8125 C6.94830219 8.32957355 7.43511253 9.87022506 9 13 C5.66462511 11.88820837 4.36292656 10.52588702 2 8 C2 9.65 2 11.3 2 13 C1.34 13 0.68 13 0 13 C0 8.71 0 4.42 0 0 Z " fill="#C5C1CB" transform="translate(393,559)"/>
<path d="M0 0 C4.4504451 1.35985822 8.74614933 2.7702817 12.875 4.9375 C17.72012055 7.47775551 22.83861597 9.2162864 28 11 C28 11.99 28 12.98 28 14 C21.35831389 11.88355257 14.89538217 9.4326092 8.4375 6.8125 C7.52419922 6.44447266 6.61089844 6.07644531 5.66992188 5.69726562 C3.44563736 4.80056454 1.22236555 3.90144402 -1 3 C-0.67 2.01 -0.34 1.02 0 0 Z " fill="#DCDAE0" transform="translate(650,394)"/>
<path d="M0 0 C3.375 -0.125 3.375 -0.125 7 0 C9 2 9 2 9.125 4.625 C9.08375 5.40875 9.0425 6.1925 9 7 C6.69 7.33 4.38 7.66 2 8 C2 9.65 2 11.3 2 13 C1.34 13 0.68 13 0 13 C0 8.71 0 4.42 0 0 Z " fill="#DEDCE2" transform="translate(801,559)"/>
<path d="M0 0 C5.77807582 1.49762627 11.4479718 3.05817774 17.0078125 5.23828125 C20.62661498 6.62194102 24.31761867 7.79811165 28 9 C27.67 9.99 27.34 10.98 27 12 C17.57004072 9.29895639 8.29430999 6.12847689 -1 3 C-0.67 2.01 -0.34 1.02 0 0 Z " fill="#DFDDE3" transform="translate(690,277)"/>
<path d="M0 0 C0.99 0 1.98 0 3 0 C3 1.65 3 3.3 3 5 C4.65 5 6.3 5 8 5 C8 3.35 8 1.7 8 0 C8.66 0 9.32 0 10 0 C10 4.29 10 8.58 10 13 C9.34 13 8.68 13 8 13 C8 11.02 8 9.04 8 7 C6.35 7 4.7 7 3 7 C3 8.98 3 10.96 3 13 C2.01 13 1.02 13 0 13 C0 8.71 0 4.42 0 0 Z " fill="#DFDDE2" transform="translate(699,559)"/>
<path d="M0 0 C0.33 0 0.66 0 1 0 C1 7.92 1 15.84 1 24 C5.47614839 22.31960069 5.47614839 22.31960069 9.94458008 20.61889648 C14.66666667 18.88888889 14.66666667 18.88888889 18 20 C15.54273755 22.88749022 13.10734898 23.93213286 9.5625 25.1875 C8.61503906 25.53167969 7.66757812 25.87585938 6.69140625 26.23046875 C4 27 4 27 0 27 C0 18.09 0 9.18 0 0 Z " fill="#F2F1F3" transform="translate(709,321)"/>
<path d="M0 0 C1.32 0 2.64 0 4 0 C4.6708712 1.6232687 5.33657029 3.24867578 6 4.875 C6.556875 6.23238281 6.556875 6.23238281 7.125 7.6171875 C8 10 8 10 8 12 C7.01 11.67 6.02 11.34 5 11 C5 10.34 5 9.68 5 9 C2.52733235 9.34444881 2.52733235 9.34444881 0 10 C-0.33 10.66 -0.66 11.32 -1 12 C-1.99 12 -2.98 12 -4 12 C-2.87204037 7.89100419 -1.66489182 3.92438786 0 0 Z " fill="#DEDCE1" transform="translate(730,560)"/>
<path d="M0 0 C6 0 6 0 7.9375 1.25 C9 3 9 3 8.75 5.125 C8 7 8 7 7 8 C5.33382885 8.04063832 3.66611905 8.042721 2 8 C2 9.65 2 11.3 2 13 C1.34 13 0.68 13 0 13 C0 8.71 0 4.42 0 0 Z " fill="#F2F1F3" transform="translate(602,559)"/>
<path d="M0 0 C0.66 0 1.32 0 2 0 C2 1.65 2 3.3 2 5 C3.65 5 5.3 5 7 5 C7 3.68 7 2.36 7 1 C7.66 1 8.32 1 9 1 C9 4.96 9 8.92 9 13 C8.34 13 7.68 13 7 13 C7 11.02 7 9.04 7 7 C5.35 7 3.7 7 2 7 C2 8.98 2 10.96 2 13 C1.01 12.67 0.02 12.34 -1 12 C-1.02687279 10.18757948 -1.04633715 8.37504767 -1.0625 6.5625 C-1.07410156 5.55316406 -1.08570313 4.54382813 -1.09765625 3.50390625 C-1 1 -1 1 0 0 Z " fill="#D3D0D8" transform="translate(553,559)"/>
<path d="M0 0 C1.890625 0.2578125 1.890625 0.2578125 4 1 C5.046875 2.7421875 5.046875 2.7421875 5.75 4.875 C6.11351562 5.92300781 6.11351562 5.92300781 6.484375 6.9921875 C7 9 7 9 7 12 C6.34 12 5.68 12 5 12 C4.67 11.34 4.34 10.68 4 10 C0.97065509 9.34227572 0.97065509 9.34227572 -2 9 C-2 9.99 -2 10.98 -2 12 C-2.66 12 -3.32 12 -4 12 C-3.71640113 10.5608866 -3.42278601 9.12374482 -3.125 7.6875 C-2.96257812 6.88699219 -2.80015625 6.08648438 -2.6328125 5.26171875 C-2 3 -2 3 0 0 Z " fill="#EDECEF" transform="translate(368,560)"/>
<path d="M0 0 C2.64 0 5.28 0 8 0 C8 0.66 8 1.32 8 2 C6.02 2 4.04 2 2 2 C2 2.99 2 3.98 2 5 C3.65 5 5.3 5 7 5 C7 5.66 7 6.32 7 7 C5.35 7 3.7 7 2 7 C2.33 7.99 2.66 8.98 3 10 C5.97 10.495 5.97 10.495 9 11 C9 11.66 9 12.32 9 13 C6.03 13 3.06 13 0 13 C0 8.71 0 4.42 0 0 Z " fill="#DFDDE2" transform="translate(936,559)"/>
<path d="M0 0 C0 0.66 0 1.32 0 2 C-1.65 2 -3.3 2 -5 2 C-4.566875 2.433125 -4.13375 2.86625 -3.6875 3.3125 C-3.130625 3.869375 -2.57375 4.42625 -2 5 C-1.13375 5.7115625 -1.13375 5.7115625 -0.25 6.4375 C0.36875 7.2109375 0.36875 7.2109375 1 8 C0.74853421 10.13745922 0.54074221 11.45925779 -1 13 C-2.99958364 13.04080783 -5.00045254 13.04254356 -7 13 C-7 12.01 -7 11.02 -7 10 C-5.35 10.33 -3.7 10.66 -2 11 C-2 10.01 -2 9.02 -2 8 C-4.475 7.01 -4.475 7.01 -7 6 C-7 4.35 -7 2.7 -7 1 C-4.53721199 -0.231394 -2.7204945 -0.07159196 0 0 Z " fill="#E1E0E5" transform="translate(891,559)"/>
<path d="M0 0 C0 0.66 0 1.32 0 2 C-3.63 3.32 -7.26 4.64 -11 6 C-10.01 6.99 -9.02 7.98 -8 9 C-8.60328125 8.91621094 -9.2065625 8.83242188 -9.828125 8.74609375 C-10.62734375 8.64425781 -11.4265625 8.54242188 -12.25 8.4375 C-13.03890625 8.33308594 -13.8278125 8.22867187 -14.640625 8.12109375 C-17.00532874 7.99972651 -18.7511037 8.30366743 -21 9 C-20 6 -20 6 -18.37353516 5.10864258 C-17.68565918 4.87298584 -16.9977832 4.6373291 -16.2890625 4.39453125 C-15.16371094 4.00297852 -15.16371094 4.00297852 -14.015625 3.60351562 C-12.83226562 3.21196289 -12.83226562 3.21196289 -11.625 2.8125 C-10.45324219 2.40354492 -10.45324219 2.40354492 -9.2578125 1.98632812 C-3.44319784 0 -3.44319784 0 0 0 Z " fill="#F1F0F2" transform="translate(651,285)"/>
<path d="M0 0 C1.2065625 0.0309375 1.2065625 0.0309375 2.4375 0.0625 C2.4375 0.7225 2.4375 1.3825 2.4375 2.0625 C0.7875 2.0625 -0.8625 2.0625 -2.5625 2.0625 C-2.5625 3.0525 -2.5625 4.0425 -2.5625 5.0625 C-1.758125 5.206875 -0.95375 5.35125 -0.125 5.5 C2.4375 6.0625 2.4375 6.0625 3.4375 7.0625 C3.47813832 8.72867115 3.480221 10.39638095 3.4375 12.0625 C0.72870665 13.41689668 -1.57183268 13.12751451 -4.5625 13.0625 C-4.5625 12.4025 -4.5625 11.7425 -4.5625 11.0625 C-2.9125 11.0625 -1.2625 11.0625 0.4375 11.0625 C0.4375 10.0725 0.4375 9.0825 0.4375 8.0625 C-2.0375 7.0725 -2.0375 7.0725 -4.5625 6.0625 C-3.48963568 0.08511307 -3.48963568 0.08511307 0 0 Z " fill="#E5E3E8" transform="translate(632.5625,558.9375)"/>
<path d="M0 0 C2.64 0 5.28 0 8 0 C8 0.33 8 0.66 8 1 C6.02 1 4.04 1 2 1 C2 1.99 2 2.98 2 4 C3.65 4 5.3 4 7 4 C7 4.66 7 5.32 7 6 C5.35 6 3.7 6 2 6 C2.33 6.99 2.66 7.98 3 9 C5.97 9.495 5.97 9.495 9 10 C9 10.66 9 11.32 9 12 C6.03 12 3.06 12 0 12 C0 8.04 0 4.08 0 0 Z " fill="#E6E5E9" transform="translate(474,560)"/>
<path d="M0 0 C1.2065625 0.0309375 1.2065625 0.0309375 2.4375 0.0625 C2.4375 0.7225 2.4375 1.3825 2.4375 2.0625 C0.7875 2.0625 -0.8625 2.0625 -2.5625 2.0625 C-2.5625 3.0525 -2.5625 4.0425 -2.5625 5.0625 C-1.94375 5.145 -1.325 5.2275 -0.6875 5.3125 C1.4375 6.0625 1.4375 6.0625 2.6875 8.125 C2.935 8.764375 3.1825 9.40375 3.4375 10.0625 C2.4475 11.5475 2.4475 11.5475 1.4375 13.0625 C-1.6875 13.25 -1.6875 13.25 -4.5625 13.0625 C-4.5625 12.4025 -4.5625 11.7425 -4.5625 11.0625 C-2.9125 11.0625 -1.2625 11.0625 0.4375 11.0625 C0.4375 10.0725 0.4375 9.0825 0.4375 8.0625 C-2.0375 7.0725 -2.0375 7.0725 -4.5625 6.0625 C-3.48963568 0.08511307 -3.48963568 0.08511307 0 0 Z " fill="#EFEEF0" transform="translate(531.5625,558.9375)"/>
<path d="M0 0 C0.99 0.33 1.98 0.66 3 1 C3 6.28 3 11.56 3 17 C2.01 17.33 1.02 17.66 0 18 C0 12.06 0 6.12 0 0 Z " fill="#DEDCE1" transform="translate(717,369)"/>
<path d="M0 0 C0 0.66 0 1.32 0 2 C-6.93 4.31 -13.86 6.62 -21 9 C-21 8.01 -21 7.02 -21 6 C-17.87959957 4.80015399 -14.75304469 3.61725823 -11.625 2.4375 C-10.73554687 2.09525391 -9.84609375 1.75300781 -8.9296875 1.40039062 C-7.65351562 0.92182617 -7.65351562 0.92182617 -6.3515625 0.43359375 C-5.17327881 -0.01415405 -5.17327881 -0.01415405 -3.97119141 -0.47094727 C-2 -1 -2 -1 0 0 Z " fill="#F0EFF1" transform="translate(751,303)"/>
<path d="M0 0 C1.65 0.33 3.3 0.66 5 1 C5.625 3.875 5.625 3.875 6 7 C5.34 7.66 4.68 8.32 4 9 C2.68 9 1.36 9 0 9 C-1.125 2.25 -1.125 2.25 0 0 Z " fill="#584E6A" transform="translate(858,561)"/>
<path d="M0 0 C0.99 0 1.98 0 3 0 C3 5.61 3 11.22 3 17 C2.01 16.67 1.02 16.34 0 16 C0 10.72 0 5.44 0 0 Z " fill="#D1CED6" transform="translate(735,362)"/>
<path d="M0 0 C0.99 0.33 1.98 0.66 3 1 C3 6.28 3 11.56 3 17 C2.01 17 1.02 17 0 17 C0 11.39 0 5.78 0 0 Z " fill="#E0DEE3" transform="translate(722,367)"/>
<path d="M0 0 C2.97 0 5.94 0 9 0 C8.01 0.33 7.02 0.66 6 1 C6 4.63 6 8.26 6 12 C5.01 12 4.02 12 3 12 C3 8.37 3 4.74 3 1 C2.01 0.67 1.02 0.34 0 0 Z " fill="#D8D5DC" transform="translate(419,560)"/>
<path d="M0 0 C1.23556641 0.01740234 1.23556641 0.01740234 2.49609375 0.03515625 C3.32238281 0.04417969 4.14867187 0.05320312 5 0.0625 C5.63808594 0.07410156 6.27617188 0.08570313 6.93359375 0.09765625 C6.93359375 0.75765625 6.93359375 1.41765625 6.93359375 2.09765625 C5.61359375 2.09765625 4.29359375 2.09765625 2.93359375 2.09765625 C2.93359375 5.72765625 2.93359375 9.35765625 2.93359375 13.09765625 C2.27359375 13.09765625 1.61359375 13.09765625 0.93359375 13.09765625 C0.93359375 9.46765625 0.93359375 5.83765625 0.93359375 2.09765625 C-0.38640625 1.76765625 -1.70640625 1.43765625 -3.06640625 1.09765625 C-2.06640625 0.09765625 -2.06640625 0.09765625 0 0 Z " fill="#E7E6EA" transform="translate(675.06640625,558.90234375)"/>
<path d="M0 0 C1.98 0 3.96 0 6 0 C4.68 0.33 3.36 0.66 2 1 C2 2.32 2 3.64 2 5 C3.32 5.33 4.64 5.66 6 6 C5.01 6.33 4.02 6.66 3 7 C3 8.65 3 10.3 3 12 C2.01 12 1.02 12 0 12 C0 8.04 0 4.08 0 0 Z " fill="#E2E0E5" transform="translate(962,560)"/>
<path d="M0 0 C1.98 0 3.96 0 6 0 C6 0.66 6 1.32 6 2 C4.68 2 3.36 2 2 2 C2 3.65 2 5.3 2 7 C2.66 7.33 3.32 7.66 4 8 C3.34 8 2.68 8 2 8 C2 9.65 2 11.3 2 13 C1.34 13 0.68 13 0 13 C0 8.71 0 4.42 0 0 Z " fill="#F1F0F3" transform="translate(828,559)"/>
<path d="M0 0 C1.98 0 3.96 0 6 0 C4.68 0.33 3.36 0.66 2 1 C2 2.32 2 3.64 2 5 C3.32 5 4.64 5 6 5 C6 5.66 6 6.32 6 7 C4.68 7 3.36 7 2 7 C2 8.65 2 10.3 2 12 C1.34 12 0.68 12 0 12 C0 8.04 0 4.08 0 0 Z " fill="#F7F7F8" transform="translate(801,560)"/>
<path d="M0 0 C5.01515859 0.35822561 9.37114839 2.16442091 14 4 C13.01 5.485 13.01 5.485 12 7 C7.38 5.35 2.76 3.7 -2 2 C-1.34 1.34 -0.68 0.68 0 0 Z " fill="#DAD7DE" transform="translate(643,293)"/>
<path d="M0 0 C2.875 -0.125 2.875 -0.125 6 0 C6.66 0.66 7.32 1.32 8 2 C7.835 3.11375 7.67 4.2275 7.5 5.375 C7.00318436 8.97691339 7.01916027 10.0870004 9 13 C8.01 13 7.02 13 6 13 C5.01 11.02 4.02 9.04 3 7 C3.99 6.67 4.98 6.34 6 6 C5.67 4.35 5.34 2.7 5 1 C3.35 1 1.7 1 0 1 C0 0.67 0 0.34 0 0 Z " fill="#E6E4E8" transform="translate(501,559)"/>
<path d="M0 0 C4.49459524 0.70228051 8.90610041 2.00087613 13 4 C13.33 4.66 13.66 5.32 14 6 C8.72676192 6.68041782 4.60611289 4.24786337 0 2 C0 1.34 0 0.68 0 0 Z " fill="#E7E5E9" transform="translate(640,313)"/>
<path d="M0 0 C0.33 0 0.66 0 1 0 C1 7.92 1 15.84 1 24 C1.99 24.33 2.98 24.66 4 25 C3.67 25.66 3.34 26.32 3 27 C2.01 27 1.02 27 0 27 C0 18.09 0 9.18 0 0 Z " fill="#FDFDFD" transform="translate(709,321)"/>
<path d="M0 0 C0.66 0 1.32 0 2 0 C2 4.29 2 8.58 2 13 C0.68 12.34 -0.64 11.68 -2 11 C-2 10.01 -2 9.02 -2 8 C-1.34 8 -0.68 8 0 8 C0 5.36 0 2.72 0 0 Z " fill="#E0DEE3" transform="translate(454,559)"/>
<path d="M0 0 C1.32 0 2.64 0 4 0 C4.6708712 1.6232687 5.33657029 3.24867578 6 4.875 C6.556875 6.23238281 6.556875 6.23238281 7.125 7.6171875 C8 10 8 10 8 12 C7.01 11.67 6.02 11.34 5 11 C5 10.01 5 9.02 5 8 C4.34 7.67 3.68 7.34 3 7 C2.375 4.9375 2.375 4.9375 2 3 C1.34 3 0.68 3 0 3 C0 2.01 0 1.02 0 0 Z " fill="#EDECEF" transform="translate(730,560)"/>
<path d="M0 0 C2.31 0.33 4.62 0.66 7 1 C6.67 2.32 6.34 3.64 6 5 C2.25 6.125 2.25 6.125 0 5 C0 3.35 0 1.7 0 0 Z " fill="#9F99A9" transform="translate(604,561)"/>
<path d="M0 0 C1.93922422 0.45098238 3.87633594 0.91105559 5.8125 1.375 C6.89144531 1.63023437 7.97039063 1.88546875 9.08203125 2.1484375 C12 3 12 3 15 5 C10.84773144 6.18956883 8.61274007 5.78960563 4.6875 4.0625 C3.80449219 3.68222656 2.92148437 3.30195313 2.01171875 2.91015625 C1.34785156 2.60980469 0.68398438 2.30945313 0 2 C0 1.34 0 0.68 0 0 Z " fill="#E8E7EB" transform="translate(717,287)"/>
<path d="M0 0 C0.66 0 1.32 0 2 0 C2 3.96 2 7.92 2 12 C1.34 12 0.68 12 0 12 C0 10.02 0 8.04 0 6 C-1.65 5.67 -3.3 5.34 -5 5 C-5 4.67 -5 4.34 -5 4 C-3.35 4 -1.7 4 0 4 C0 2.68 0 1.36 0 0 Z " fill="#F4F3F5" transform="translate(560,560)"/>
<path d="M0 0 C5.20540698 0.96396425 9.59913433 1.87680501 14 5 C10.51523541 6.1615882 9.32751629 5.77669581 5.875 4.75 C4.98554687 4.49734375 4.09609375 4.2446875 3.1796875 3.984375 C2.10074219 3.49710937 2.10074219 3.49710937 1 3 C0.67 2.01 0.34 1.02 0 0 Z " fill="#EAE9EC" transform="translate(656,298)"/>
<path d="M0 0 C5.445 1.485 5.445 1.485 11 3 C10.67 3.99 10.34 4.98 10 6 C6.37 5.01 2.74 4.02 -1 3 C-0.67 2.01 -0.34 1.02 0 0 Z " fill="#D2CED6" transform="translate(690,277)"/>
<path d="M0 0 C0.33 0 0.66 0 1 0 C1 2.31 1 4.62 1 7 C0.01 7.33 -0.98 7.66 -2 8 C-2.66 7.01 -3.32 6.02 -4 5 C-4.33 7.31 -4.66 9.62 -5 12 C-5.66 11.67 -6.32 11.34 -7 11 C-6.67 8.36 -6.34 5.72 -6 3 C-4.35 3.33 -2.7 3.66 -1 4 C-0.67 2.68 -0.34 1.36 0 0 Z " fill="#C9C6CF" transform="translate(453,560)"/>
<path d="M0 0 C-0.33 0.99 -0.66 1.98 -1 3 C-3.28515625 3.94921875 -3.28515625 3.94921875 -6.0625 4.6875 C-7.44115234 5.06455078 -7.44115234 5.06455078 -8.84765625 5.44921875 C-9.55792969 5.63097656 -10.26820313 5.81273437 -11 6 C-11 5.01 -11 4.02 -11 3 C-9.73160474 2.49384702 -8.46016898 1.99530901 -7.1875 1.5 C-6.12595703 1.08234375 -6.12595703 1.08234375 -5.04296875 0.65625 C-3 0 -3 0 0 0 Z " fill="#F1F0F2" transform="translate(694,323)"/>
<path d="M0 0 C3.3 0.99 6.6 1.98 10 3 C9.67 3.99 9.34 4.98 9 6 C5.7 5.01 2.4 4.02 -1 3 C-0.67 2.01 -0.34 1.02 0 0 Z " fill="#D9D6DD" transform="translate(664,321)"/>
<path d="M0 0 C1.2065625 0.0309375 1.2065625 0.0309375 2.4375 0.0625 C2.4375 0.7225 2.4375 1.3825 2.4375 2.0625 C0.7875 2.0625 -0.8625 2.0625 -2.5625 2.0625 C-2.5625 3.0525 -2.5625 4.0425 -2.5625 5.0625 C-1.5725 5.3925 -0.5825 5.7225 0.4375 6.0625 C-0.2225 6.7225 -0.8825 7.3825 -1.5625 8.0625 C-2.5525 7.4025 -3.5425 6.7425 -4.5625 6.0625 C-3.48963568 0.08511307 -3.48963568 0.08511307 0 0 Z " fill="#E6E4E8" transform="translate(531.5625,558.9375)"/>
<path d="M0 0 C0.66 0.33 1.32 0.66 2 1 C1.79375 1.886875 1.5875 2.77375 1.375 3.6875 C0.97449761 7.2252711 1.43316484 8.86632967 3 12 C0 11 0 11 -1.3125 8.8125 C-2.18142092 5.25782353 -1.3912592 3.32356365 0 0 Z " fill="#F0EFF2" transform="translate(399,560)"/>
<path d="M0 0 C0.99 0.33 1.98 0.66 3 1 C2.67 2.98 2.34 4.96 2 7 C0.02 7 -1.96 7 -4 7 C-4.33 8.32 -4.66 9.64 -5 11 C-5 9.35 -5 7.7 -5 6 C-3.02 5.67 -1.04 5.34 1 5 C0.67 3.35 0.34 1.7 0 0 Z " fill="#F7F7F8" transform="translate(344,560)"/>
<path d="M0 0 C2.97 0.99 5.94 1.98 9 3 C8.01 4.485 8.01 4.485 7 6 C4.36 5.01 1.72 4.02 -1 3 C-0.67 2.01 -0.34 1.02 0 0 Z " fill="#CECBD4" transform="translate(650,394)"/>
<path d="M0 0 C2 2 2 2 2 5 C2.66 5 3.32 5 4 5 C4.33 5.66 4.66 6.32 5 7 C5.99 7.66 6.98 8.32 8 9 C5.25913944 9.22223194 3.56036279 9.34781139 1.1875 7.875 C-0.49106106 5.22464043 -0.20450238 3.06753576 0 0 Z " fill="#CDC9D2" transform="translate(854,563)"/>
<path d="M0 0 C2.9628331 0.39504441 5.38326241 1.59817629 8 3 C7.34 3.66 6.68 4.32 6 5 C3.36 4.01 0.72 3.02 -2 2 C-1.34 1.34 -0.68 0.68 0 0 Z " fill="#D4D1D9" transform="translate(627,385)"/>
<path d="M0 0 C2.9628331 0.39504441 5.38326241 1.59817629 8 3 C7.34 3.66 6.68 4.32 6 5 C3.36 4.01 0.72 3.02 -2 2 C-1.34 1.34 -0.68 0.68 0 0 Z " fill="#D4D1D8" transform="translate(610,378)"/>
<path d="M0 0 C0.66 0.99 1.32 1.98 2 3 C-4.625 2.25 -4.625 2.25 -8 0 C-5.06791253 -1.46604374 -3.11702298 -0.77925574 0 0 Z " fill="#E1E0E5" transform="translate(689,276)"/>
<path d="M0 0 C2 3 2 3 1.625 5.1875 C1.41875 5.785625 1.2125 6.38375 1 7 C-0.32 6.67 -1.64 6.34 -3 6 C-2.625 3.5625 -2.625 3.5625 -2 1 C-1.34 0.67 -0.68 0.34 0 0 Z " fill="#9E98A8" transform="translate(371,561)"/>
<path d="M0 0 C3.625 0.375 3.625 0.375 7 1 C6.67 1.99 6.34 2.98 6 4 C3.36 3.34 0.72 2.68 -2 2 C-1.34 1.34 -0.68 0.68 0 0 Z " fill="#D3D0D8" transform="translate(731,292)"/>
<path d="M0 0 C0 0.99 0 1.98 0 3 C-2.70879335 4.35439668 -5.00933268 4.06501451 -8 4 C-8 3.34 -8 2.68 -8 2 C-2.25 0 -2.25 0 0 0 Z " fill="#EBEAEE" transform="translate(636,568)"/>
<path d="M0 0 C0.66 0 1.32 0 2 0 C2.125 2.375 2.125 2.375 2 5 C0 7 0 7 -2.625 7.125 C-3.40875 7.08375 -4.1925 7.0425 -5 7 C-4.360625 6.5875 -3.72125 6.175 -3.0625 5.75 C-0.79009069 3.82189513 -0.39803561 2.88575819 0 0 Z " fill="#F3F2F4" transform="translate(864,564)"/>
<path d="M0 0 C2 3 2 3 2 5 C0.02 5 -1.96 5 -4 5 C-2.25 1.125 -2.25 1.125 0 0 Z " fill="#948EA0" transform="translate(732,562)"/>
<path d="M0 0 C2.475 0.495 2.475 0.495 5 1 C5 1.99 5 2.98 5 4 C3.35 4 1.7 4 0 4 C0 2.68 0 1.36 0 0 Z " fill="#6B627B" transform="translate(803,561)"/>
<path d="M0 0 C2.475 0.495 2.475 0.495 5 1 C5 1.99 5 2.98 5 4 C3.35 4 1.7 4 0 4 C0 2.68 0 1.36 0 0 Z " fill="#6D637C" transform="translate(502,561)"/>
<path d="M0 0 C2.475 0.495 2.475 0.495 5 1 C5 1.99 5 2.98 5 4 C3.35 4 1.7 4 0 4 C0 2.68 0 1.36 0 0 Z " fill="#695F79" transform="translate(340,561)"/>
<path d="M0 0 C2.31 0.66 4.62 1.32 7 2 C6.67 2.99 6.34 3.98 6 5 C3.69 4.34 1.38 3.68 -1 3 C-0.67 2.01 -0.34 1.02 0 0 Z " fill="#D3D0D8" transform="translate(709,302)"/>
<path d="M0 0 C2.35171131 0.59861742 4.6859378 1.26924352 7 2 C7.33 2.66 7.66 3.32 8 4 C5.69 3.67 3.38 3.34 1 3 C0.67 2.01 0.34 1.02 0 0 Z " fill="#EAE9EC" transform="translate(702,300)"/>
<path d="M0 0 C2.31 0.66 4.62 1.32 7 2 C6.67 2.99 6.34 3.98 6 5 C3.69 4.34 1.38 3.68 -1 3 C-0.67 2.01 -0.34 1.02 0 0 Z " fill="#D3D0D8" transform="translate(688,294)"/>
<path d="M0 0 C2.35171131 0.59861742 4.6859378 1.26924352 7 2 C7.33 2.66 7.66 3.32 8 4 C5.69 3.67 3.38 3.34 1 3 C0.67 2.01 0.34 1.02 0 0 Z " fill="#EAE8EC" transform="translate(681,292)"/>
<path d="M0 0 C2.475 0.495 2.475 0.495 5 1 C4.67 1.99 4.34 2.98 4 4 C2.68 4 1.36 4 0 4 C0 2.68 0 1.36 0 0 Z " fill="#746B83" transform="translate(964,561)"/>
<path d="M0 0 C0.99 0.33 1.98 0.66 3 1 C2.34 1 1.68 1 1 1 C0.7525 1.61875 0.505 2.2375 0.25 2.875 C-1.20628639 5.35068687 -2.37812506 5.95125002 -5 7 C-3.70700306 4.11562221 -2.34058637 2.12780579 0 0 Z " fill="#DBD0CC" transform="translate(770,514)"/>
<path d="M0 0 C2.31 0.66 4.62 1.32 7 2 C6.67 2.99 6.34 3.98 6 5 C3.69 4.34 1.38 3.68 -1 3 C-0.67 2.01 -0.34 1.02 0 0 Z " fill="#D5D2DA" transform="translate(667,286)"/>
<path d="M0 0 C2 3 2 3 2 6 C1.34 6 0.68 6 0 6 C-0.33 5.34 -0.66 4.68 -1 4 C-3.52733235 3.34444881 -3.52733235 3.34444881 -6 3 C-6 2.67 -6 2.34 -6 2 C-4.02 1.34 -2.04 0.68 0 0 Z " fill="#DDDBE1" transform="translate(373,566)"/>
<path d="M0 0 C1.32 0 2.64 0 4 0 C4 0.66 4 1.32 4 2 C2.02 2.99 0.04 3.98 -2 5 C-1.125 1.125 -1.125 1.125 0 0 Z " fill="#D0C5C3" transform="translate(821,516)"/>
<path d="M0 0 C2.97 0.99 5.94 1.98 9 3 C9 3.33 9 3.66 9 4 C5.37471432 4.20140476 3.13498292 3.85776765 0 2 C0 1.34 0 0.68 0 0 Z " fill="#F4F3F5" transform="translate(615,304)"/>
</svg>
